<?xml version="1.0" encoding="utf-8"?>
<!-- Generator: Adobe Illustrator 22.1.0, SVG Export Plug-In . SVG Version: 6.00 Build 0)  -->
<svg version="1.1" xmlns="http://www.w3.org/2000/svg" xmlns:xlink="http://www.w3.org/1999/xlink" x="0px" y="0px"
	 viewBox="0 0 350 350" style="enable-background:new 0 0 350 350;" xml:space="preserve">
<style type="text/css">
	.st0{fill:#FFFFFF;}
	.st1{fill:#CEE5CA;}
	.st2{filter:url(#Adobe_OpacityMaskFilter);}
	.st3{opacity:0.3;mask:url(#SVGID_1_);}
	.st4{fill:#2F302F;}
	.st5{display:none;}
	.st6{display:inline;fill:#CEE5CA;}
	.st7{display:inline;opacity:1.000000e-02;}
	.st8{display:inline;opacity:2.000000e-02;}
	.st9{display:inline;opacity:3.000000e-02;}
	.st10{display:inline;opacity:4.000000e-02;}
	.st11{display:inline;opacity:5.000000e-02;}
</style>
<g id="Layer_1">
	<g>
		
			<image style="overflow:visible;opacity:0.44;" width="307" height="306" xlink:href="E102C908759F5120.png"  transform="matrix(1 0 0 1 36 29)">
		</image>
		<g>
			<rect x="44.4" y="37" class="st0" width="276" height="276"/>
		</g>
	</g>
	<g>
		<g>
			<rect x="49.4" y="42" class="st1" width="266" height="266"/>
		</g>
		<defs>
			<filter id="Adobe_OpacityMaskFilter" filterUnits="userSpaceOnUse" x="49.4" y="42" width="266" height="266">
				
					<feColorMatrix  type="matrix" values="-1 0 0 0 1  0 -1 0 0 1  0 0 -1 0 1  0 0 0 1 0" color-interpolation-filters="sRGB" result="source"/>
			</filter>
		</defs>
		<mask maskUnits="userSpaceOnUse" x="49.4" y="42" width="266" height="266" id="SVGID_1_">
			<g class="st2">
				
					<image style="overflow:visible;" width="271" height="270" xlink:href="E102C908759F5123.jpg"  transform="matrix(1 0 0 1 47 40)">
				</image>
			</g>
		</mask>
		<g class="st3">
			<rect x="49.4" y="42" class="st4" width="266" height="266"/>
		</g>
	</g>
	
		<image style="overflow:visible;" width="1568" height="1798" xlink:href="E102C908759F512F.png"  transform="matrix(0.1432 0 0 0.1432 73.74 92.6403)">
	</image>
</g>
<g id="Layer_2" class="st5">
	<rect x="505.8" y="119.8" class="st6" width="250" height="250"/>
	<path class="st7" d="M800.6,131.9c-7.9-0.7-15.8-1.2-23.7-1.8c3.2-1.2,4.9-5.7,2-8.3c-1.9-1.7-4.1-3-6.3-3.9
		c6.5-0.4,12.9-0.8,19.4-1.1c6.4-0.4,6.5-9.7,0-10c-80-3.9-160.1,1.2-239.9,8.4c-10.8,1-21.6,2-32.4,3c-5.3,0-10.6-0.1-15.9-0.1
		c-1.9,0-3.2,0.8-4,2c-5,0.5-9.9,1-14.9,1.4c-2.5,0.2-4,1.9-4.6,3.7c-24.2,1.4-48.4,2.9-72.6,4.3c-6.4,0.4-6.5,9.9,0,10
		c22.9,0.5,45.9,1,68.8,1.5c-2.6,1.9-2.9,4.9-1.5,7c0,1.1,0.3,2.2,1,3.2c-1.4,0-2.9,0.1-4.3,0.1c-27.2,0.7-54.5,1.2-81.7,1.4
		c-6.4,0-6.4,10,0,10c34.6,0.1,69.2-0.5,103.8-1.6c0,0.6,0.1,1.2,0.4,1.7c-3.4,3.2-6.7,6.7-9.7,10.3c-1.5,1.8-1.5,4.5-0.4,6.4
		c-1,1.2-1.3,2.5-1.1,3.8c-0.3,0.2-0.6,0.5-1,0.7c-5.1,3.8-0.8,11.7,5,8.6c1.7-0.9,3.4-1.8,5.1-2.6c1.1,0.3,2.3,0.2,3.6-0.4
		c30-13.5,60.2-26.6,92.6-32.8c24.3-1.1,48.5-2.4,72.8-3.8c17.9,1,35.8,3.3,53.5,6.1c21.2,3.4,42.2,7.7,63.2,12
		c5.2,1.1,9.3-6.7,3.9-9.1c-3.8-1.7-7.7-3.3-11.7-4.8c4.8-1.3,4.2-9.4-1.6-9.8c-2.1-0.2-4.3-0.3-6.4-0.5c1.3-0.5,2.3-1.4,2.8-2.5
		c12-0.9,24-1.9,35.9-2.8C807.1,141.4,807,132.5,800.6,131.9z"/>
	<path class="st8" d="M785.1,147.9c-1.3-0.5-2.5-1.1-3.8-1.6c-0.1-0.3-0.2-0.7-0.4-1c-1.4-3.1-3.3-5.7-5.6-8c0.1,0,0.1,0,0.2,0
		c5.2-0.4,7.3-9,1.3-9.8c-0.4-0.1-0.9-0.1-1.3-0.2c0,0,0,0,0,0c0,0,0,0-0.1,0c-7-0.9-14-1.6-21-2c0-0.5,0-0.9-0.1-1.4
		c0-0.9-0.3-1.7-0.8-2.4c0.4-0.1,0.8-0.1,1.2-0.2c5.8-0.9,4-9.6-1.3-9.8c-19.6-0.9-39.1,0.7-58.3,4.7c-14.6,0.3-29.2,1.1-43.9,1.8
		c-16.9,0.9-33.9,1.7-50.9,1.6c-6.5,0-12.9-0.3-19.3-0.7c-0.8-0.7-1.8-1.1-3.2-1.1c-3.5-0.1-6.9-0.2-10.4-0.3
		c-1.1-0.5-2.5-0.6-3.9-0.1c-0.8,0-1.6-0.1-2.5-0.1c-4.1-0.4-8.1-0.9-12.2-1.3c-18.7-2.1-37.3-3.6-56-0.6c-5.7,0.9-4.1,9.7,1.3,9.8
		c0.4,0,0.9,0,1.3,0c0.2,1.1,0.5,2.1,1,3.1c-1.5,0.3-3,0.5-4.5,0.8c-5.5,1-4.3,10.1,1.3,9.8c2.7-0.1,5.4-0.3,8-0.5
		c-0.6,0.7-1.2,1.3-1.8,2.1c-1.6-0.6-3.6-0.5-5.1,1.1c-4.3,4.3-7.3,9.4-9,15.3c-1.3,4.5,3.6,7.5,7.3,5.6c0.4-0.2,0.8-0.4,1.2-0.6
		c0.1,0.1,0.1,0.1,0.2,0.2c-0.8,0.6-1.5,1.3-2.3,2c-0.7,0.7-1.2,1.4-1.4,2.2c-2.5,3.5,0.3,9.9,5.2,7.9c38.3-15.8,78.8-25.5,120-28.9
		c26.9,2.5,53.8,0.7,80.8,1.4c14.5,0.4,28.9,1.6,43.1,4.5c14.1,2.9,28.2,6.6,42.8,5.9C787,157,789.9,150,785.1,147.9z M508.9,126.3
		c-0.6-0.2-1.1-0.4-1.6-0.6c1.5,0,2.9,0.1,4.4,0.1C510.7,125.9,509.8,126.1,508.9,126.3z"/>
	<path class="st9" d="M776.6,136.4c-4.7-1.5-9.4-2.7-14.2-3.8c1.4-0.4,2.8-0.8,4.2-1.4c5.1-2,4.6-9.5-1.3-9.8
		c-6.7-0.4-13.3-0.8-20-1.2c-9.3-1.5-18.6-1.9-28-1.6c-22.9-1.3-45.8-2.7-68.7-4c-2.7-0.2-4.3,1.9-4.8,4.1
		c-7.8-0.6-15.6-0.8-23.4-0.3c-6.4-0.1-12.9-0.1-19.3-0.1c0.2-2.1-0.8-4.1-3.6-4.5c-16.2-2.4-32.7-1.1-48,4.5
		c-0.6-0.3-1.4-0.6-2.2-0.6c-2.9,0-5.8,0-8.7,0c-7.6-1.8-15.4-1.9-23.2-0.3c-13.5-1.7-26.9-3.5-40,2.7c-4.4,2.1-2.3,9.7,2.5,9.3
		c6.2-0.5,12.5-0.8,18.8-1c-4.6,1.7-9.3,3.3-13.9,4.9c-5.3,1.8-4.4,9.6,1.3,9.8c3.1,0.1,6.2,0.1,9.3,0c-0.2,1.5-0.1,2.9,0.7,4.2
		c-0.5,0.1-0.9,0.3-1.4,0.4c-5.5,1.6-4.3,9.7,1.3,9.8c35.8,1.1,70.3-9.7,105.8-12.1c36.7-2.5,73.7-2,110.5-2.9
		c21.4-0.5,42.4-0.4,63.6,3.5C780.2,147.2,782.8,138.4,776.6,136.4z"/>
	<path class="st10" d="M771.7,132.9c-2.8,0-5.7-0.1-8.5-0.2c0.4-1.3,0.3-2.7-0.5-3.9c-10.2-14.6-27.7-12.3-43.3-13.4
		c-18.4-1.4-36.5-4.9-55-6c-36.3-2.3-72.8-0.2-108.7,5.8c-5,0.8-10,1.8-15,2.8c-0.6-0.6-1.4-1-2.6-1.2c-13.7-2.3-27.4-3-41.2-2
		c-6,0.4-6.4,9.2-1.2,10c-2.9,2.5-4.6,6.2-3.5,10.9c0.2,0.7,0.5,1.3,1,1.9c-3.1,2.7-2.1,9,3.1,8.8c1.2-0.1,2.4-0.2,3.5-0.3
		c0.7,0.5,1.7,0.7,2.9,0.7c35-2.7,69.5-8.8,104.4-12c17.4-1.6,34.9-2.5,52.3-1.8c17.5,0.7,34.9,2.9,52.3,5.1c20,2.5,40,4.8,60.1,5
		C778.2,143,778.2,133,771.7,132.9z"/>
	<path class="st11" d="M780.4,119.9c-54.2-17.9-111.3-19.3-167.6-13.5c-26.2,0.1-52.4,1.9-78.3,5.4c-16.3,2.2-38.8,2.6-48.9,17.8
		c-2.6,3.9,1.7,8.1,5.6,7.3c36-7.3,72.3-14.6,108.9-19.1c32.7-1.2,65,2.1,97.4,7.1c19.2,3,38.5,6,57.7,9c5.4,0.8,8.9-5.9,3.9-9.1
		c-0.9-0.6-1.8-1.1-2.7-1.6c7.2,1.8,14.4,3.9,21.4,6.2C783.9,131.5,786.5,121.9,780.4,119.9z"/>
	<path class="st7" d="M833,159.2c-12.2,6.7-24.4,13.5-36.5,20.3c-0.5,0-1,0-1.5,0.2c-1.8,0.5-3.6,1.1-5.4,1.6c2.7-3.2-0.7-9.6-5.4-8
		c-21,6.8-40.8,16.8-60.1,27.4c-2.7,1.5-5.4,2.9-8,4.4c-18.5,9.1-36.7,18.5-54.6,28.7c-34.1,17.5-67,37.2-99,58.3
		c-20.7,13.7-41,27.9-60.9,42.6c-1.7,1.2-2.3,2.9-2.2,4.5c-2.1,1.6-4.2,3.2-6.3,4.8c-2.2,1.7-1.8,5-0.1,6.9
		c-9.7,7.6-19.4,15.1-29.1,22.7c-4.5,3.5,1.3,10.7,6.1,7.9c6.6-4,13.3-8,19.9-12c0,0.1,0,0.1,0,0.2c0.6,1.5,1.4,2.7,2.2,3.5
		c-1.6,2.1-3.1,4.2-4.6,6.3c-2,2.8,0.2,6.4,3.1,7.4c-1.8,2.6-0.6,6.2,1.7,7.6c-2.4,1.6-4.8,3.3-7.1,5c-5.2,3.7-0.4,12.2,5,8.6
		c16.1-10.3,32.3-20.6,48.6-30.7c0.8,0.6,1.7,0.9,2.7,0.8c1.3-0.1,2.5-0.1,3.8-0.2c-7.9,6.2-15.7,12.5-23.5,18.8
		c-4.2,3.4,0.4,9.3,4.9,8.4c18.3-4,33.3-15.5,47.8-26.7c0.6-0.4,1.1-0.9,1.7-1.3c0.8,3,4.4,5.5,7.5,3.5c3.1-2,6.2-4.1,9.3-6.1
		c0.3,0,0.6-0.1,0.9-0.1c-13.3,11.9-26.5,24-39.5,36.2c-4.8,4.5,2.2,11.1,7.1,7.1c14.4-12.1,29-23.9,43.8-35.5c0.9,0.1,1.9,0,3-0.4
		l23.5-10.3c-0.1,0.2-0.2,0.4-0.3,0.6l-3,2.3c-4.4,3.5,1.5,11.3,6.1,7.9c0.5-0.4,1.1-0.8,1.6-1.2c0.8,0.6,1.8,1,2.9,0.9
		c2.4-0.2,4.7-0.6,6.9-1.1c-1.5,1.2-3,2.4-4.6,3.6c-3.9,3.1,0.3,10.1,4.9,8.4c3.8-1.5,7.6-2.9,11.4-4.3c-6.7,7-13.4,14-20.1,20.9
		c-4.5,4.6,2.5,11.6,7.1,7.1l35.6-35.8c2.5-0.8,5.1-1.6,7.6-2.4c-1.8,3.4-3.5,6.8-5.2,10.2c-1.3,2.6-0.6,5.2,1.8,6.8
		c8.3,5.9,17.9-4.5,23.7-9.5c2.4-2.1,4.7-4.2,7-6.4c1.3,0.6,2.9,0.7,4.3,0c4-1.9,7.7-4.2,11.2-6.9c1.2,0.6,2.7,0.9,4.1,0.6
		c1.3,2.7,5.1,4.3,8.1,1.7c1.2-1.1,2.4-2.1,3.6-3.2c1.7,1.5,4.3,1.9,6.4-0.4c2.1-2.3,4-4.6,5.7-7.1c0.6-0.8,1.3-1.6,1.9-2.4
		c6.2-5.1,10.8-12.1,15.1-18.9c3-4.7-4.3-10.5-7.9-6.1l-9.8,12.2c-0.9,0.2-1.8,0.6-2.6,1.3c-0.2,0.1-0.3,0.3-0.5,0.4
		c-0.4-0.3-0.9-0.6-1.4-0.8c0.3-0.5,0.7-0.9,1-1.4c1.2-1.6,0.9-3.6-0.1-5.1c5.5-5.5,11.1-10.9,16.6-16.4c4-3.9-1.2-11-6.1-7.9
		c-1.8,1.1-3.5,2.3-5.3,3.4c-1.1-0.3-2.3-0.1-3.5,0.6c-0.5,0.3-1,0.7-1.5,1c0.1-0.2,0.2-0.5,0.3-0.7c5.6-4.9,11.3-9.8,16.9-14.7
		c4.9-4.2-2.2-11.2-7.1-7.1c-0.6,0.5-1.2,1-1.8,1.5c-0.3-2.2-1.7-4.1-3.7-4.6c10.8-8.6,23.6-17.3,28.5-30.5c1.4-3.9-2.8-6.8-6.2-6.2
		c-1.1,0.2-2.2,0.5-3.3,0.8c10.2-6.5,20.4-13.1,30.5-19.6c5.4-3.5,0.5-11.9-5-8.6c-4.5,2.7-9,5.4-13.5,8.1c2.3-1.8,4.7-3.5,7-5.3
		c3.6-2.8,2.9-9.4-2.5-9.3c-3.1,0.1-6.2,0.4-9.3,1c7.3-6,14.4-12.2,21.3-18.6c3.3-3.1,0.5-8.8-3.7-8.6c0.4-1.8-0.1-3.8-1.3-5.1
		c1-0.6,2.1-1.3,3.1-1.9c1.7-1.1,2.5-2.6,2.4-4.1c3.1-2,6.2-4.1,9.2-6.1c2.1-1.4,2.6-3.9,2-6c6.5-3.6,13-7.3,19.5-10.9
		C843.6,164.7,838.6,156.1,833,159.2z M769.1,245c1.1-0.5,2.2-0.9,3.3-1.3c-1.1,0.8-2.3,1.7-3.4,2.5
		C769.1,245.7,769.1,245.3,769.1,245z M772.2,225.5c1.7-0.8,3.4-1.7,5.1-2.5c-1.7,1.4-3.5,2.8-5.2,4.2
		C772.1,226.7,772.2,226.1,772.2,225.5z M671.6,373.1c0.9-0.7,1.8-1.4,2.7-2.1c-0.6,0.6-1.1,1.2-1.7,1.8
		C672.3,372.9,671.9,373,671.6,373.1z M760.6,284.7c-0.3-0.5-0.7-1-1.1-1.4c3.2-2.6,6.8-4.8,10.5-6.7c-1.4,1.3-2.9,2.6-4.4,3.8
		C764,281.9,762.3,283.3,760.6,284.7z"/>
</g>
</svg>
