<?xml version="1.0" encoding="utf-8"?>
<!-- Generator: Adobe Illustrator 22.1.0, SVG Export Plug-In . SVG Version: 6.00 Build 0)  -->
<svg version="1.1" id="Layer_1" xmlns="http://www.w3.org/2000/svg" xmlns:xlink="http://www.w3.org/1999/xlink" x="0px" y="0px"
	 viewBox="0 0 350 350" style="enable-background:new 0 0 350 350;" xml:space="preserve">
<style type="text/css">
	.st0{fill:#9CB0A6;}
	.st1{fill:#8B9791;}
	.st2{fill:#CBDBD3;}
</style>
<g>
	<g>
		<g>
			<g>
				<g>
					<path class="st0" d="M170.3,118.5c-0.3-0.8-1.5,7.5-1.8,9C169.3,125.8,170.7,116.4,170.3,118.5z"/>
					<path class="st0" d="M183.5,102.4l-1.3,3.2c1.4-2.5,2.9-4.9,4.4-7.3C185.5,99.7,184.5,101.1,183.5,102.4z"/>
					<path class="st0" d="M193.4,106.8c2.6-6.7,1.3-6.7-0.4-5.5c-1.8,1.1-4,3.2-3.9,0.5l0.9-3.1c-1.7,3.4-3.4,6.9-5.1,10.3
						c1.3-0.4,3.4-2.1,5.3-3.1C191.9,104.9,193.5,104.6,193.4,106.8z"/>
					<path class="st0" d="M184.4,136.8c2.3-5,3.3-3.7-0.3-2.1c-0.2,0.6-0.3,0.9-0.5,1.4C183.9,136.1,184.2,136.3,184.4,136.8z"/>
					<path class="st0" d="M183.7,136.1C182.6,135.9,182.1,140.5,183.7,136.1L183.7,136.1z"/>
					<path class="st0" d="M189.6,135.7l-3.7,3.6c-1.3,3-0.6,4.3-2.2,6.1c1.3-0.9,2.3-2,3.2-3.6C187.9,140.3,188.7,138.2,189.6,135.7
						z"/>
					<path class="st0" d="M196.1,127.4l-1.8,1.4C193.7,130,193.7,130.6,196.1,127.4z"/>
					<path class="st0" d="M190.6,131.8c1.2-1,2.4-2,3.7-3c0.9-2.1,3.2-6.2-1.5,1C195,126.1,192.7,129.5,190.6,131.8z"/>
					<path class="st0" d="M190.9,129.4c0.7-3.1,0.7-5.4,4.4-9c-1.8,0.1-3.7,2.5-4.8,4.8C189.4,127.5,189.1,129.6,190.9,129.4z"/>
					<path class="st0" d="M200.3,93.7l0.6-4.4l-3.1,3.8C199.4,91.3,198.5,97.8,200.3,93.7z"/>
					<path class="st0" d="M194.6,147.2c1.7-2.5,3.7-7.2,5.6-10.6l-2.9,2.3C196.8,141,196.8,143.3,194.6,147.2z"/>
					<path class="st0" d="M200.2,136.6c1.4-1.2,2.9-2.3,4.4-3.4C203.4,131.7,201.8,133.7,200.2,136.6z"/>
					<path class="st0" d="M204.2,113.8c-2.7,2.6-5.4,5.3-8,8c2.8-2.7,5.7-5.3,8.6-7.9L204.2,113.8z"/>
					<polygon class="st0" points="201,151.5 196.3,156.9 203.6,149 					"/>
					<path class="st0" d="M205.6,153c-1.6,2.4-2.9,4.6-4,6.4c-1.4,2.3-1,1.6-3.2,5c0.5-0.9,3.4-5,6.1-8.6
						C202.9,157.7,203.2,157.1,205.6,153z"/>
					<path class="st0" d="M208.7,150.6c-0.9,1-2.5,3-4.2,5.1C205.9,154,207.3,152.4,208.7,150.6z"/>
					<path class="st0" d="M206.8,136.2c-0.8,1.7-3.1,5.9-3.1,8.2l3.8-7.7C207.2,136.6,207,136.4,206.8,136.2z"/>
					<path class="st0" d="M207.5,136.5l-0.1,0.2c0.7,0.6,1.1,1.1,1.3,1.3C208.5,137.9,208.2,137.4,207.5,136.5z"/>
					<path class="st0" d="M206.6,136.1c0.1,0.1,0.1,0.1,0.2,0.1C207.1,135.5,207.2,135.2,206.6,136.1z"/>
					<path class="st0" d="M204.7,123c3.4-3.5,8.2-6.6,9.9-14.1C210.8,113.4,209.8,117.7,204.7,123z"/>
					<path class="st0" d="M211.3,126.5l-0.8-2.8c-1.1,1.9-2.5,5-4.3,6.7L211.3,126.5z"/>
					<polygon class="st0" points="213.7,124.7 211.3,126.5 211.7,127.5 					"/>
					<path class="st0" d="M212.4,143.5c2.4-2.9,2.9-2.9,3.7-3.2c0.6-1.6,0.6-2.7,0.1-3C214.7,139.6,211.9,143.5,212.4,143.5z"/>
					<path class="st0" d="M211.2,139.9c0.2-0.1,0.3-0.2,0.4-0.3C211.9,138.9,211.9,138.7,211.2,139.9z"/>
					<path class="st0" d="M219.8,143.1c0.4-0.4,0.7-0.8,1.1-1.2c-0.4,0.3-0.7,0.7-1.1,1V143.1z"/>
					<path class="st0" d="M217,136c0.3-0.8,0.1-0.8-0.4-0.3c-0.1,0.1-0.2,0.3-0.4,0.4c-0.2,0.2-0.4,0.3-0.6,0.5
						c-0.4,0.4-0.8,0.8-1.3,1.3c0.2-0.1,0.5-0.2,0.7-0.2c0.2-0.1,0.3-0.2,0.5-0.2c0.3-0.1,0.5-0.2,0.7-0.1
						C216.9,136.4,217.4,135.7,217,136z"/>
					<path class="st0" d="M211.8,147.9c1-1.5,1.8-2.8,2.5-4C212.8,146.2,210.4,149.6,211.8,147.9z"/>
					<path class="st0" d="M210.6,141.8c-0.1,0.1-0.2,0.2-0.3,0.3C209.6,143.7,210,143,210.6,141.8z"/>
					<path class="st0" d="M210.6,141.8c1-0.8,2.5-2.4,3.8-3.8c-0.8,0.3-1.7,0.8-2.8,1.7C211.4,140.2,211,141,210.6,141.8z"/>
					<path class="st0" d="M262.2,106.7c-3,2.6-6.4,4.7-8.4,5.3c-2,0.6-2.6-0.3-0.5-4c-3,1.4-8.6,7.3-14.7,14.1
						c-6.1,6.8-12.9,14.5-17.8,20c2.5-2.4,4.7-4.8,9.1-7.3c1.4-1.6,2.7-3.9,4.3-6.4c1.6-2.4,3.5-5.1,6.6-7.2
						c4.7-1.4-0.5,3.2-2.9,6.8c3.4-3.7,6.5-5.7,10.4-8c1.9-1.1,4-2.3,6.2-3.8c1.1-0.8,2.3-1.6,3.6-2.5c1.2-1,2.5-2,3.8-3.2
						c-2,0.5-3.9,0.9-5.8,1.5C257.8,110.3,261.2,108.6,262.2,106.7z"/>
					<path class="st0" d="M220,140.3l-1,0.5c-0.6,1.3-2.5,3.9-6.5,8.7c3-2.6,5.3-4.6,7.2-6.4c-0.2-0.6-0.4-1.3-0.6-1.9L220,140.3z"
						/>
					<path class="st0" d="M217.6,139.9c2.8-3.3,5-5.5,7.2-7.8s4.5-4.7,7.1-8.6c-1.9-0.6-5.6,4.9-8.6,7.4c1.6-0.2,0.8,0.7-0.7,2.2
						s-3.5,3.7-4.4,6c-1.2,1-1.7,1.2-2.2,1.3c-0.4,1-0.9,2.2-1.7,3.6c0.1-0.2,0.2-0.3,0.3-0.4l0,0c0,0,0-0.1,0.1-0.1
						c0.6-0.9,1-1.4,0.7-0.9c0.1-0.1,0.1-0.1,0.1-0.1C216.3,141.5,217,140.7,217.6,139.9c-0.7,1.7-1.4,1.8-2.1,2.6
						c-0.3,0.3-0.6,0.7-0.8,1c0,0,0,0.1-0.1,0.1c1.4-1,2.8-1.9,4.4-2.7C219.5,139.7,218.9,139.6,217.6,139.9z"/>
					<path class="st0" d="M226.1,94.2c-0.3,0.7-0.6,1.2-0.9,1.8C226,95.2,226.4,94.6,226.1,94.2z"/>
					<path class="st0" d="M224.9,99.6c-0.9,0.9-2.9,3.7-3.3,2.4c0.6-2.7,2.1-3.5,3.6-6c-1.7,1.6-5,4.2-5.6,8.8l0.9-0.9
						c0,3.4-3.8,13.8-4.7,14.6C219.4,111.6,221.9,106.7,224.9,99.6z"/>
					<path class="st0" d="M224.7,119.2l2.6-0.9c0.8-0.3,1.5-0.7,2.3-1.1c1-2.3,2-4.6,2.8-7.1l-2.3,3.8
						C229.3,111.5,226.7,116.4,224.7,119.2z"/>
					<path class="st0" d="M216.8,146.3l-6.7,6.4c3.2-3,6.5-5.9,9.9-8.7C218.9,144.8,217.8,145.5,216.8,146.3z"/>
					<path class="st0" d="M218.8,146.6l-6.1,5.3c1.3-1,2.6-2,3.9-2.9C217.3,148.2,218.1,147.4,218.8,146.6z"/>
					<path class="st0" d="M91.9,283.5l-2.6,0.8C90.3,284.2,91.1,283.9,91.9,283.5z"/>
					<path class="st0" d="M101.1,290.8l2.4-3.1C101.8,289.2,100.8,290.4,101.1,290.8z"/>
					<path class="st0" d="M215.3,190.2c-6.5-3.7-15.8-10.3-8.8-4.8l6.9,5.2C212.5,189.2,213.5,189.4,215.3,190.2z"/>
					<path class="st0" d="M189.2,264.3c0.3,0.8,0.6,1.6,1,2.5c-0.2-3-0.4-5.7-0.6-8.3C189.4,260.3,189.3,262.2,189.2,264.3z"/>
					<path class="st0" d="M194.5,299.8c-1.3-1.6-2.5-3.3-3.7-5C191.7,296.6,192.9,298.4,194.5,299.8z"/>
					<path class="st0" d="M44.4,242.8c-2.9,0.9-5.8,1.8-8.7,2.6C37.4,248.3,40.5,244.7,44.4,242.8z"/>
					<path class="st0" d="M228.2,161.4c-3.4,0.8-4.8,1.3-5.3,1.6C228,162.2,235.5,160.9,228.2,161.4z"/>
					<path class="st0" d="M150.2,212.2c-1.2,1-2.4,2.3-3.6,3.9C147.8,215.1,149,213.9,150.2,212.2z"/>
					<path class="st0" d="M223,164.2c0.9-0.1,1.3-0.2,2.1-0.3c-1.5-0.3-2.6-0.6-2.1-1C219.2,163.6,216.9,163.9,223,164.2z"/>
					<path class="st0" d="M98.7,32.9c0.4,0.2,0.6,0.3,1,0.6C99.2,32.5,99,32.6,98.7,32.9z"/>
					<path class="st0" d="M171.5,99.6c-0.3,0.6-0.8,0.7-1.3,0.8C170.6,101,171,100.9,171.5,99.6z"/>
					<path class="st0" d="M219.2,153.7C218.5,153.7,218.3,154.1,219.2,153.7L219.2,153.7z"/>
					<path class="st0" d="M248.9,134.4c0.9-0.4,2.1-0.9,3.9-1.9C250.9,133.5,249.7,134.1,248.9,134.4z"/>
					<path class="st0" d="M276.3,174.2C276.3,174.3,276.3,174.3,276.3,174.2C278,174.2,277.7,174.2,276.3,174.2z"/>
					<path class="st0" d="M222.5,151.4c-0.9,0.6-1.6,1.2-2.1,1.6C221,152.6,221.7,152.1,222.5,151.4z"/>
					<path class="st0" d="M218.8,153.4c0.3-0.3,0.5-0.5,0.6-0.6C218.2,153.5,217.3,153.9,218.8,153.4z"/>
					<path class="st0" d="M219.8,153.8c-0.2-0.1,0.1-0.4,0.6-0.9c-0.5,0.3-0.9,0.6-1.2,0.7C219.3,153.7,219.5,153.7,219.8,153.8z"/>
					<path class="st0" d="M58.7,140.8c0.3,0,0.5-0.1,0.8-0.1C56.1,139,56.6,139.6,58.7,140.8z"/>
					<path class="st0" d="M262.6,270.3c0-0.1-0.1-0.3-0.1-0.4c-0.1,0-0.3-0.1-0.4-0.1L262.6,270.3z"/>
					<path class="st0" d="M262.7,278.4c-4.9-9.8-3.3-9.4-0.6-8.7c-5.7-6.1-11.4-12.2-17-18.4C251.1,260.3,257,269.3,262.7,278.4z"/>
					<path class="st0" d="M70.7,267c-1.1,2.6-2.2,5.3-3.2,8c-12.5,5.5-11.7-0.4-17.3,9.8c5.1-4.4,8.5-6.1,10.9-6.3
						c2.4-0.3,4,0.8,5.5,2c1.6,1.1,3.2,2.2,5.6,1.8c2.4-0.4,5.6-2.3,10.3-7.2c-0.7,1.9-1.4,3.9-2.1,5.9c-0.3-0.7-1.5,0.4-1.8-0.2
						c-1.3,3.2-0.9,4.1,0.4,3.7s3.5-2.2,5.9-4.1c4.8-3.9,10.3-8.6,11.3-5.3c0.2,2.9-1,6.9-4.1,8.6c2.7-0.8,5.3-1.6,7.8-2.5
						c0.8,1.2-2.2,4.9-3.1,3.6c2.4,0.8,4.8,1.7,7.3,2.4l-0.5,0.6c3.2-2.9,8.7-7.3,11-9.2c-0.5,4.2-2.2,2-3.6,5.1
						c2.3-1.2,4.5-2.4,6.6-3.7c-1.1,3.4-3.1,6.3-5.2,7.9s-4.2,2.1-5.1,0.9c-2.8,6.3-3.6,9.2-3.5,10.3c0.1,1.1,1.3,0.4,2.7-0.6
						c1.4-1,3.2-2.2,4.5-2.1c0.7,0.1,1.3,0.5,1.7,1.5c0.5,1,0.8,2.5,1,4.8c-1.8,0.4-3.7,0.7-5.5,1c-2.4,7.5-2,10.4-0.9,12.9
						s2.7,4.4,3.5,9.9c0.3-2.6,0.2-9.3,1.3-15.7c1.1-6.5,3.3-12.6,6.9-14.6c0.3,2.4,1.6,4.1,6.1,0.1c-3.8,8.9-0.4,7.7,2.8,8.4
						l-4.7,11.9c4.9-2.2,6.7-8.5,10.4-13.3c0.1,0.1,0.2,0.1,0.2,0.2c2.9,2.6,1,12-0.2,20.2c3.1,1.9,2.9-2.3,3.1-6.9
						c0.2-4.7,0.9-9.7,4.6-10c1.9,2.9,4.1,3.3,6.7,2.2c2.6-1.2,5.5-4,8.8-7.4c1.4,2.4,1.1,4.3,0.4,6.1c-0.6,1.8-1.6,3.4-1.2,5.4
						c1.5-3.2,2.9-6.6,4.2-9.8c0.7,0.3,0.2,3.4-0.1,5c1.5-1.9,1.8-5,2.3-8.2c0.5-3.1,1.1-6.1,3-7.7c0.9-7,2.2-1.8,4.5,3.1
						c1.1,2.5,2.4,4.9,3.7,5.6s2.6-0.1,3.5-4.2c1.3,3.6-0.2,7.9,0.4,12.8c1.6-2.7,2.6-4.5,3.4-6c0.8-1.5,1.3-2.6,1.8-3.9
						c0.5-1.2,0.9-2.6,1.4-4.5s1.1-4.5,1.8-8.1c1.6,2.6,3.4,5.2,5.2,7.7c-2.3-4.5-2.8-9.7-2.7-15c0-2.6,0.2-5.3,0.4-7.9
						c0.2-2.4,0.4-5,0.6-7.6c-1.7-4.4-3-8.3-3.8-10.1c0.8-2.5,1.5-5,2.2-7.4c0.9,2,1.5,6.3,2,11.7c0-1.1,0.1-2.2,0-3.1
						c2.4,4.3,3.4,11.7,3.8,18.9c-1.1-2.4-2.2-4.9-3.2-7.4c0.5,7.8,0.9,16.5,2.5,23.8c0.1-1.5,0.5-2.9,1-3.7c0.1,2.1,0.2,4,0.6,5.3
						c0.4,1.3,0.5-1.6,0.6-5c1.3,4.6,2.7,9.2,4.2,13.7l-0.9-5.6c3,2.4,6,4.7,9.3,6.9c0.7-7.6,0.4-16.8,0.2-25
						c-0.2-8.3-0.2-15.3,1.5-19.3c1.3,5.1,2.8,9.1,4.6,13.3c1.8,4.1,3.9,8.4,6.2,14.2c-3.5-5.7-4.2-3.8-4.9-0.7
						c-0.7,3.1-1.3,7.6-3.7,7c2.5,0.6,4,6.4,4.1,8.5c1.2-4.7,2.2-9.2,3-13.8c3.6,9.5,4.3,6.5,7.7,9.6c-4.6-9-4.6-12.5-3.6-14.7
						s3.2-3.1,3.1-6.4c3.1,5.9,5.5,12.4,1.5,12.5c5,6,3.8,0.1,2.2-6s-3.6-12.3,1-7.5c-0.7,0.5-1.5-0.2-0.2,3
						c-0.5-3.1,0.8-4.1,2.5-3.7s3.8,2.2,4.8,5L237,279c1.5-0.2,3.3-0.9,4.9-2c1.6-1.2,3-2.8,3.9-4.9c1.9-4,1.4-9.8-3.5-16.8
						c1.4,1.7,11.7,16.8,13.5,19.8c-8.5-17.5-18-34.2-28.8-50.2c4.5,5.8,12.9,14.9,20.5,23.5c7.6,8.7,14.5,17,15.2,21.8
						c2.4,0.7,5.5,1.3,4.3-4.6c-1.1-0.4-5-4-8.7-7.7c-3.7-3.7-7-7.5-7.1-8.4c6.6,5,8.6,6.2,10.4,7.1c1.8,0.9,3.4,1.5,9.8,4.9
						c-1.6-0.6-6.1-5.3-10-10c-3.9-4.7-7.2-9.2-6.2-9.6c2.2,2.6,16.2,15.8,17.3,18.1c-3.9-6.7-8-13.1-12.5-19.4
						c2.1,3.7,13.7,13.2,19.3,16.5c-1.8-1.3-0.9-2.1,0.4-3s3-1.8,2.6-3.1c-1.9-0.5-3.7-1-5.6-1.6c3.4-1.3-1.7-7.6-7.2-13.8
						s-11.5-12.3-9.5-13.9c1.7,1.6,7.2,6.2,12.8,10.3c5.6,4.1,11.3,7.7,13.4,7.2c-4.3-4-14.7-13.3-25-22.2
						c-4.5-3.8-9.3-8.1-14.5-12.5c-4.2-3.7-7.6-6.7-9.1-8.5l6,2.8c-1.7-2-3.5-4-5.2-5.9c7.2,4.8,18.1,12.8,28.2,21.5
						s19.1,17.9,23.8,23.7c5.7,0.9,6.8,3.8,8.5,0.3c6,2.2,6.7,6.9,6.3,8.1c1.4-0.9,2.9-1.9,4.3-2.9l4.2-3.1
						c-5.9-3.2-7.9-6.5-9.7-9.5c-0.9-1.5-1.8-3-3-4.3c-1.3-1.4-3-2.7-5.5-4c2.7,4.9,5,9.9,7.3,15.2c-5.8-3.4-13.2-9.6-18.7-15.1
						c-5.5-5.6-9.2-10.3-7.1-12c2.7,0.7,7.9,3.6,12.9,6.7c5,3.1,9.8,6.3,11.9,7.3c-1.9-1.4-3.2-3.8-3.6-5.5
						c-0.5-1.8-0.1-3.1,1.5-2.6c1.8,1.8,3.6,3.6,5.3,5.5c3.1-0.5-0.3-3.7-2.9-6.5s-4.3-5.1,2.4-4.5c0.7-0.5,5.1,0.1,8.5,0.4
						c3.4,0.3,5.7,0.2,2-1.3c-15.3-3-59.4-20.6-69.9-25.4c0.3,0,1.4,0.1,3,0.3c1.6,0.1,3.7,0.3,6,0.5c4.6,0.4,10.1,0.6,13.9,1.2
						c6,1,12.7,3.6,19.1,6.5c6.4,2.8,12.5,5.8,17.7,6.5c-3.5-1.2-7.4-3.7-8.7-4.6c1.7-0.2,4.4,0.8,6.6,1.3c2.1,0.6,3.9,0.8,3.5-1
						c-6.5-2.1-5.8-3.5-5.2-4.3c0.3-0.4,0.6-0.6,0-0.6s-2.2,0.2-5.5,0.4c-3.1-3.7,3.5-2.4,3.8-6.1c-4.4-0.3-11.6-2.6-18.2-4.9
						c-6.6-2.3-12.6-4.6-14.3-5.8c3.4,0.6,8,0.7,10.1,0.7c1.1-2.3,3-4,4.9-5.8c0.9-0.9,1.8-1.8,2.5-2.9c0.7-1,1.1-2.1,1.1-3.4
						c1.6-0.3,3.5-1,5.6-1.7c2.1-0.6,4.6-1.2,7.5-0.7c-2.4-0.7-7-1.2-7.4-2.7c5.9-2.1,6.3-1.2,7.1-0.2c0.8,1,1.8,2.2,8.9,0.4
						c-4,0.1-6.7-0.9-9.1-2c-2.5-1.2-4.6-2.6-7.1-3.4c-6,1.2-6.5,2.4-4.8,3.7c0.8,0.6,2.2,1.3,3.6,2c1.4,0.6,3,1.3,4.2,1.8
						c-8.4,0.4-17-0.1-24.6-0.7c-7.6-0.7-14.2-1.5-18.2-2.4c-2.2-0.9,0.5-1.6,3.4-2.2c2.9-0.6,6.2-0.9,4.9-0.9
						c0.6-1.5-1.1-2.2-3.6-2.3c-2.6-0.1-6,0.3-9.1,0.7c-3.2,0.4-6,0.9-7.3,0.8c-1.4-0.1-1.2-0.6,1.5-2.4c5-2.4,10.1-4.4,15-5.9
						c4.8-1.6,9.4-2.8,13.1-4.3c2.4,0.7,1,2.3-0.9,3.9c-1.9,1.6-4.3,3-3.9,3.8c1.5-1.1,3-2.3,4.5-3.6c1.9-0.1,3.5,0.2,4.4,0.7
						s0.9,1.3-0.5,2.2c4.6-2,4.4-5.2,3.8-8.6c-0.6-3.5-1.7-7.1,1.1-11.7c-1.8,0.3-3.8,0.5-5.7,1c-1.9,0.5-3.8,1.2-5.6,2.6l2.1,0.8
						c-3.7,2.6-6.8,3.2-9.3,3.8s-4.4,1-5.9,2.7c-3.2,0.6-7.1,1.8-9.8,2.3s-4.1,0.5-2.5-1.7c3.5-2.4,6.9-4.7,10.4-7.1
						c-1.5,1-2.9,2.4-3.4,3.2c-0.6,0.9-0.3,1.3,1.5,0.6c-2.7,1,0.6-1.9,2.4-4.3c1.9-2.4,2.4-4.2-4.6,0.1c-2,2.1-4.1,4.2-6.3,6.2
						c-3.3,1.2-8.1,3.7-11.5,5.4c-3,1.5-4.9,2.3-3.8,0.7c-4.6,4.1-4.3,3.9-4.2,3.9s0.1,0.1-0.6,0.7c-0.7,0.6-2.1,1.9-4.9,4.2
						c5-4.1,6.6-5,7.2-4.9c0.5,0.1,0.3,0.8,1.1,0.6s2.8-1.3,7.5-5c-6.7,5.1-8.1,6.3-9.1,7.4c-1.1,1.1-1.8,2-8,5.9
						c3.6-2.1,6.8-4.2,5.3-2.6c1.1-0.6,2.5-1.2,3.3-1.6c-0.1,0.1-0.1,0.1-0.2,0.2c0.1-0.1,0.3-0.2,0.4-0.3c0.6-0.3,0.7-0.3,0.1-0.1
						c1.5-1,3.4-2.3,5.3-3.5c8.6-4.2,9.3-2.2,14.1-3.5c-0.7,0.8-1.9,1.2-3.3,1.7c-1.4,0.5-3.1,1.1-5.1,2.2c2.4-0.7,4.7-1.4,7.1-2
						c-4.2,1.9-7.6,3.8-10.6,5.3s-5.7,2.5-8.4,3c0,0.4,0,0.7-0.1,1.1c-4.6,2.4-6.5,3.4-2.7,2.7c-0.9,0.5,1.6,0,3.4-0.3
						c1.9-0.3,3.1-0.5-0.4,0.2c1.9,0,3.9,0.1,5.8,0.3l-2.2,0.5c-0.2,0.5,0.6,0.7,1.7,1c1.1,0.3,2.6,0.6,3.5,1c0.5,0.2,0.8,0.4,1,0.7
						c0.1,0.3,0,0.5-0.4,0.8c-0.8,0.6-2.9,1.3-6.9,1.8c2.3,0.5,5,1.3,2.4,2.1l-7.8-0.3c1.3,0.4-0.6,0.7-2,0.8
						c-1.3,0.2-1.9,0.3,2,1.1c-5.2-0.7-8.1-1-9.5-1.1c-1.5-0.1-1.6-0.2-1.1,0c0.1,0.1,0.3,0.1,0.4,0.2l0.5,0.4
						c0.4,0.3,0.7,0.6,1,0.9c0.5,0.6,0.7,1.1-0.3,1.1l9.6,3.2c-0.4,0.4-0.1,1.1,0.9,2.1c0.9,1,2.2,2.2,3.8,3.7l8.3,3.3
						c1.5,1.1,1.8,1.7,1.4,2.1c-0.4,0.4-1.5,0.5-2.9,0.5c-2.7,0-6.1-0.4-6.2,0.9c-2.9-1.8-1.9-1.9,0.1-1.3c-4.8-1.7-6.5-1.9-6.7-1.2
						s1.2,2.3,2.7,4c1.5,1.8,3.1,3.7,3.4,4.8c0.3,1.1-0.6,1.4-4-0.1c2.3,2.4,1.1,2.2-1,1.3c0-0.1-0.1-0.2-0.3-0.4
						c-0.1,0-0.2,0.1-0.3,0.1c-1.4-0.7-2.8-1.4-4.4-2.2c1.9,1.1,3.5,2,4.3,2.3c-0.2,0.5,0.2,1.8,1.5,3.8l-7.7-5.7
						c0.1,0.1,0,0.1,0.1,0.3c-3.2-1.7,3.2,3.3,9.1,7.5c1,1.3,2.2,2.8,3.8,4.6c-6.2-4.7-5.5-3.5-5-2.3s0.8,2.4-5.6-2.8
						c2.8,2.9,3.3,4.7,4.5,7.3c1.1,2.6,3,6,8.8,12.3c-1.6-1.6-2.5-2.1-2.3-2.6c-2.2-0.6-4.2-1.3-1.6,2.9l-8.6-8.7
						c3.2,4.5,6.2,9.1,9.2,13.8c-6-4.6-9.1-7.8-14.2-15.7c1.8,3.2,2.8,5.3,3.3,6.7s0.7,2.1,0.9,2.8c0.3,1.4,0.8,2.7,3.9,9.4
						l-4.6-6.4c-0.3,0.4,0.8,3,1.4,5c0.6,1.9,0.6,3.1-1.5,0.5c-5.3-5.6-7.6-4.5-10.5-3.4c-0.7,0.3-1.5,0.6-2.3,0.8s-1.6,0.4-2.6,0.2
						c-1.9-0.2-4-1.2-6.5-4c5,10.6,3.4,8.4,1.4,5.7c-1.9-2.7-4.1-6.1-1,2.4c-2.2-5-3.9-7.8-4.8-12.5c-0.2,2.9-1.7,1.2-2.7,0.5
						s-1.4-0.3-0.2,7.3c-1.7-5.3-1.7-7.9-2.8-11c0.2,1.2,0.6,4.8-0.4,1.6c-1-3.1-0.9-4.5-1.3-6.9c-0.7,0.6-0.1,5.1,1,11.4
						c1.1,6.3,2.8,14.3,4.5,22.1c-3.2-7.1-3.4-5.9-2.7,4.6c-0.7-2.5-1.5-5.1-2-7.3c-0.4-2.2-0.5-4,0.2-5.1c-0.6-0.2-2.3-2-3.6-2
						c-0.7,0-1.2,0.4-1.5,1.5c-0.3,1.2-0.5,3.2-0.2,6.4c-0.6-3.2-1.4-0.8-1.6,0.7c-1.1-0.4-1.8-0.8-2.4-1c-0.3-0.1-0.6-0.1-0.9-0.1
						c-0.4,0-0.8,0.2-1.3,0.5l0.6,2.1c-0.5,7.7-1.1,8.5-1.7,7.7c-0.6-0.9-1.3-3.4-2.2-2.5l0.2-1.6c-0.9-2.9-1.3-4-1.7-4.2
						c-0.4-0.3-0.7,0.4-0.9,0.9c-0.3,0.5-0.6,1-0.9,0.5c-0.3-0.5-0.8-1.9-1.1-5.2l-1.4,9.5c-1,5.1-1.6,6.8-2.1,6.7
						c-0.5-0.2-0.7-2.2-0.8-4.6c-0.1-2.4-0.2-5.2-0.4-6.9c-0.2-1.8-0.6-2.5-1.7-0.8c-0.2,1.8-0.4,3.7-0.6,5.5
						c-1.7,3.4-0.6-4.8,1.4-13.5c1.7-7.7,4-15.6,4.2-16.8c0.5-1.7,1.2-2.6,1.8-3.8c0.7-3,0.8-3.7,0.5-3.2c-0.3,0.6-1.1,2.5-2,4.8
						c-1.8,4.7-4.2,11.2-5.7,12.2c1.1-3.2,2.9-7.1,4.3-10.5c1.4-3.3,2.4-6.1,2.4-6.8c1-2.6-1.7,2.3-4.4,6c-1.4,1.9-2.8,3.5-3.5,3.8
						c-0.8,0.3-0.9-0.5,0.5-3.5c-2.4,4.7-4.6,9.4-7.5,12.3c-0.6,0.2-0.5-0.9-0.1-2.4c0.4-1.6,1.1-3.5,1.5-5.1c0.9-3.1,1-4.6-4.5,1.6
						c0.7-1.3,1.5-2.4,2.2-3.5c-3.5,2.7-7.5,3.1-14.1,9.1c10.3-13,6.4-11.1,1.9-9.4c-2.2,0.9-4.6,1.7-5,1s1.2-2.8,6.8-8
						c-1.3-0.7-2.7-1.3-4-2.1l2.5-1.9c-0.1-1.6-1.7-1.5-4-0.5c-2.4,1-5.6,2.9-8.8,4.7c1.2-1.8,3.8-3.1,5.1-4.1
						c1.2-3.5,1.7-4.9,0-4.9c-1.7,0-5.6,1.7-13,4.2l8.3-5.5c-2.7,1.1-0.1-2.1,2-4.9c2.1-2.7,3.9-4.7-2-3.9c1.1-0.4,2.9-1.1,4.2-1.4
						c-3,0.4-3.1-0.5-1.9-1.8c1.1-1.3,3.5-2.8,5.1-3.9c3.3-2.3,4-2.9-13.9-0.5c-3-0.3-6.1-0.7-9.2-1.3c-1.2,2-5,2.5-9.4,2.6
						c-4.3,0.2-9.1-0.2-12,1.2c-1.2-0.9,1.4-2.5,4.5-3.5s6.8-1.4,7.9-0.5l-1.8,0.5c9.4-0.6,10.9-2,11.7-3.3c0.8-1.4,0.9-2.7,7.4-2.9
						c-0.6-3.6,1.9-7.6,4.7-11.4c2.9-3.9,6.1-7.9,7-11.7l-14.6-0.9c0.4-0.9,0.8-1.9,1.2-2.8c3.5-0.3,11.5,0.7,10.6,2.5
						c4.2,0,2.6-1-0.5-2.1c-3-1.1-7.5-2.5-9.1-2.7c3.2-1.5,7.4-0.4,10.8,0.9c3.4,1.2,6.1,2.7,6.4,2.1l-0.8-1.6h-1.7
						c-5.7-2.1-11.9-3.4-10.8-5.6c3.2-0.9,9,1,9.7,0.6c1,0.2,1.5,0.1,0.6-0.7c0.6-0.9,1.3-1.8,1.9-2.7c-3.8-0.5-7.7-1-11.5-1.4
						c-5.2-2.7,1.3-2.9-11.8-4.5c5,0.6,8.2,0.3,10.2-0.5s2.8-2,3.3-3.3s0.5-2.7,0.9-3.6c0.4-1,1-1.6,2.5-1.2c-3.6-2.3-5.1-4-5.6-5.2
						c-0.4-1.2,0.3-2,1.2-2.7c-2.4-0.7-14.1-6.4-11.5-7.7c5.7,3.5,9.4,5.4,11.8,6.4c2.5,1.1,3.7,1.3,4.8,1.4c2.2,0.2,3.7-0.4,12,4.8
						c-5.5-3.3-5.6-4.5-6.2-6.3c-0.3-0.8-0.7-1.8-1.9-3.2c-1.3-1.4-3.4-3.2-7.3-5.6c1.4,0,3.3,1.6,5.6,3.6s5,4.2,7.7,5.9
						c-0.1-0.1-0.1-0.2-0.2-0.3c-1.4-2.1-1.4-3.2-0.7-3.7c0.2-0.1,0.4-0.2,0.6-0.3c0.3,0,0.5,0,0.9,0c0.6,0,1.3,0.2,2.1,0.4
						c1.4,0.3,3.1,1,4.2,1.2c1.2,0.2,2,0.1,2.1-1c-1-1.5-2.4-3.2-3.9-5.1c-1.5-2-3-4.1-4.2-6.5c4,4.3,7.9,8.9,11.5,13.5
						c-0.2-0.9-2.8-5.2-4.4-8.2c-1.6-2.9-2-4.6,1.6,0.4c-1.6-2.5-4.2-6.2-4.3-7.4c2,1.4,3.5,2.1,4.8,2.4c1.2,0.4,2.3,0.2,3.3-0.3
						c1.1-0.4,1.9-1.1,2.9-1.9s1.9-1.7,3-2.4c1.1-0.7,2.2-1.4,3.4-1.7c1.3-0.2,2.6-0.2,4,0.4c1.5,0.7,3,1.9,4.6,3.9s3.3,4.9,5,8.7
						c-2.2-6.5-1.5-7.4-0.5-7.7c-0.9-1.5-1.1-8.6-1.9-13.3c2.1,4.2,4.1,8.4,5.9,12.7c-0.2-6.6,1-6.9,2.1-7.2
						c1.1-0.2,2.3-0.3,2.2-6.7l-1.4,2.4c0.5-7.5-0.6-15.8-2.2-24.5c-1.6-8.7-3.9-17.9-4.5-27.5c-0.8,8.6-3.3,2.5-6.3-2.6
						c-1.5-2.5-3.1-4.8-4.4-4.9c-1.4-0.1-2.5,2.1-2.8,8.3c-1.8-3.7,0-6.3-1.3-10.5c-0.1,8.3-1.3,10.2-5,7.2l-0.1-2.1
						c-2,0.9-3.9,1.1-5.7,1s-3.7-0.7-5.6-1.5c-2-0.7-4.1-1.6-6.4-2.5c-2.4-0.8-5.1-1.5-8.1-1.9l4,8.7c-2.5-0.5-4-3-5.9-4.8
						c1.4,7.2,3,6.8,4.6,6.6c1.6-0.2,3.3-0.1,4.9,7.7c-4.5-8.7-8.4-7.2-12.1-6.1c-0.9,0.3-1.9,0.6-2.9,0.7c-1,0.1-2.1,0.1-3.2-0.2
						c-2.2-0.7-4.7-2.6-7.9-7.2c-1.9,0.9-0.3,3.2,1.3,5.5c1.6,2.3,3.1,4.5,1.4,5.4c-1.3-1.6-2.5-3.1-3.8-4.7c1,2.4,2,4.7,3,7.1
						c-2.7,0.1-7.8-5.4-10.6-9.6c0.9,0.2,0.9-2.2,1.3-2.9c-3.4-2-5.3-0.1-6.6,2.1c-1.2,2.3-1.8,4.8-2.9,4.3c1.8,0.2,3.6,0.4,5.4,0.6
						c-1.4,2.5-3.2,4.5-5.2,6.3C88.2,49,86,50.7,84,52.6s-3.9,3.9-5.3,6.2c-1.4,2.4-2.4,5-2.5,8.1c0,1.4,0.1,2.8,0.4,4.3l3.9,2.2
						c0.9,5.4-0.7,5.8-3.1,6c-1.2,0.1-2.5,0.2-3.6,0.8c-1.1,0.6-2,1.8-2.2,4.1l-0.7-0.8c2.9,3.7,3.9,6.7,2.4,8.3
						c-1.8-2.1-4.5-2.6-7.2-3c-2.7-0.4-5.5-0.9-7.4-3.6c2,6,3.1,7.6,5.3,9.4c1.1,0.9,2.4,1.8,4.3,3.2c1.9,1.4,4.3,3.3,7.7,6
						c-2.4-0.6-4.8-1.3-7.3-1.9c2.8,2.1,5,3.4,6.6,4.8c1.6,1.3,2.6,2.6,2.9,4.5c-2.5-2.4-5.3-2.9-8.4-3.5s-6.4-1.2-9.7-4.3
						c-4.5,0.5-6.1,1.9-6.2,3.5c-0.1,1.6,1.2,3.5,2.4,5.1s2.2,3,1.4,3.7c-0.8,0.8-3.3,1-9.3,0.4c9.5,4.3,12.7,3.4,13.9,1.9
						c1.3-1.5,0.7-3.7,2.6-2.2c3.4,0.2,6.9,2,9.2,3.8c2.3,1.8,3.5,3.7,2.3,4.4c-0.5,1-7.1,0.2-13.7,0.1s-13.3,0.5-13.6,3.5
						c0.2-0.6-1.3-0.9-1.1-1.5c-2.8,0.6-1.3,2-0.1,3.4c1.1,1.4,1.9,2.7-2.6,3.3c12,3.5-1.3,3.4,14.3,6.2c-1-1.8-1.9-3.7-2.8-5.6
						c1.8,1.8,7.1,4.1,10.9,6.3s5.8,4.2,1.1,5.8c-3.1-0.8-7.1-2.6-9.3-3.9c-4.8,0.7,2.7,3-2.2,3.8c-7.8-1.2-8.5-2.8-8.6-4.8
						s0.3-4.2-5.4-6.8c-3.4,0.3-0.8,2.3,0.5,3.6c1.4,1.4,1.5,2.1-6.9,0.1c10.6,2.8,9.7,4,8.2,5.4s-3.7,3,4.4,5.8l-9.4-1.3
						c1.4,0.8,5.7,2.5,5.4,3.5c-4-1.1-8-2.2-12-3.3c5,2.1,2.6,3.3-0.4,4.6s-6.6,2.5-3.9,4.4c0.1-3.4,3-3.4,6.8-3
						c3.7,0.4,8.3,1.4,11.9,0.4c6,4.3-0.3,4.9-7.6,5.7c-3.6,0.4-7.6,0.8-10.3,1.8s-4.3,2.5-3.3,5.1c-1.3-1.5,5.9-4.8,10.2-2.5
						c-2.1,1.7-5.8,4.1-10.8,5.2c0.9,3.5,3.4,3.2,6.3,2.5s6.4-1.9,9.3-0.5c-5.8,1-4.6,1.9-1.5,2.8c3.1,0.9,8.1,1.7,10,3.1l-9.6,0.3
						c-1.5,2-1,3.1,0.6,3.7c1.5,0.6,4,0.7,6.4,0.7c4.9,0.1,9.6,0,6.1,3.6c-4.5-0.5-9-1.1-13.6-1.8c1.2,1.2,2.5,2.3,3.8,3.5l-11,0.2
						c8.6,3.7,6.6,5.1,4.3,10.1c3.2-1.1,7.6-1.7,11.2-1.6c3.6,0.1,6.5,0.7,7.1,2.4c-2.5,1.8-4.9,2-6.2,2.2c-1.4,0.3-1.8,0.7-0.5,3.1
						c-3.1,0.2-6.5,0.3-8.2-0.1c-1.7-0.4-1.6-1.5,2.5-3.6c-3.1,0.4-6.2,0-9.3,0.3c-3,2.1-2.9,4.1-2,5.8c0.9,1.7,2.6,3,2.9,4
						c0.1-0.9,0.4-2,1.6-2.8c5,1.6,10,2.9,15.1,3.9c-3.1,2.3-6.1,2.3-9.2,2.2c1.5,1.3,6.1,0.9,7.6,2.8c-7.6,2.1-15.2,5.1-19.9,2.7
						c1.8,0.9,3.7,1.8,5.5,2.6c1.8,0.8,3.7,1.6,5.5,2.3c-1.5,0.9-3.3,2.7-5,4.4c-1.8,1.7-3.5,3.2-5,3.3c-1.1,3.2,3.6,4.4,8.3,5.5
						c2.4,0.7,4.6,1.1,6.1,1.9c1.5,0.8,2.3,2,1.7,4c1.5-0.5,3-0.8,4.6-0.3c0.3,1.3,0.1,2.8,0,4.4c-0.2,1.6-0.4,3.2-0.2,4.6
						c0.3,2.8,2.1,4.9,8.2,4c-3.1,3.7-6.2,7.4-9.2,11.2c2.7,0.9,5.5-2.8,8.7-6.2c3.3-3.5,7-6.7,11.2-5.6c6.5,0.9-8.1,9-10,12.9
						c3.6-1.3,8.8-3.4,12.4-4s5.5,0.5,3,6.1C71.7,269.7,72.4,267.4,70.7,267z M118.8,296c-1,0.7-2.6,2.1-3.9,2.7s-2.1,0.3-1.1-2.4
						C120,287.1,118.3,292.2,118.8,296z M199.3,281c0.1,3.2-1.3,2-3.2-1.3C196.7,278.8,197.7,278.9,199.3,281z M227.9,154.1
						c0.2-0.1,0.3-0.1,0.5-0.1C224.9,155.8,226.3,155.1,227.9,154.1z M231.5,151.2c-1.3,0.4-2.6,0.9-3.9,1.5c2.4-0.8,2.6-0.6,2.1,0
						C232.1,151.7,233.7,150.9,231.5,151.2z M124.4,141.5h-2.6C119.3,139.8,121.8,140.7,124.4,141.5z"/>
					<path class="st0" d="M194,295.7c-0.6-1.5-1-3.3-1.4-5.1C192.5,292.3,192.9,294.2,194,295.7z"/>
					<path class="st0" d="M46,242.3c0-0.1,0-0.1,0-0.2c-0.5,0.2-1.1,0.5-1.6,0.7L46,242.3z"/>
					<path class="st0" d="M309.6,198.9c-1.6,0.5-3.5,0.5-5.3,0.3C306.5,199.9,308.6,200.1,309.6,198.9z"/>
					<path class="st0" d="M213.9,153.6c0.8-0.3,1.6-0.7,2.5-1c-0.6,0,1.2-1.2,2.4-2.3C216.8,151.7,214.1,153.6,213.9,153.6z"/>
					<path class="st0" d="M250.5,105.4c-1,0.7-0.6-0.3-1.7,0.4l-2.9,3.5C247.2,109.8,250.4,107.7,250.5,105.4z"/>
					<path class="st0" d="M240.2,133.8c2.2-1.7,3.4-2.7,3.8-3.3c1-1.2-0.8-0.8-2.1-0.7c0.1,0,0.2,0,0.1,0.1
						c-8.3,6.2-6.3,5.6-3.1,4.3C239.3,134.1,239.7,134,240.2,133.8z"/>
					<path class="st0" d="M241.5,129.8c-0.5,0-0.9-0.1-0.8-0.6C237,132.1,240.2,130.2,241.5,129.8z"/>
					<path class="st0" d="M225.8,151.7c1.8-1.2-9.7,4.4-6.7,2.8c-4.8,2.2-1.8,1,1.8-0.3C224.4,152.9,228.6,151.3,225.8,151.7z"/>
					<path class="st0" d="M261.5,116.7c-2.6,2.2-5.2,4.4-7.9,6.6l1.3-0.8c2-1.2,3.9-2.4,5.9-3.5l0.4-1.1L261.5,116.7z"/>
					<path class="st0" d="M261.6,130.3c0.5-1.1,1-2.2,1.4-3.4c-1.5,0.9-2.5,1.1-3.3,1.2c0.2,0.7,0,1.6,0.1,2.1
						C259.9,130.8,260.3,131,261.6,130.3z"/>
					<path class="st0" d="M259.7,128.2c-0.2-0.7-0.8-1.2-2.4-0.6C257.6,127.8,258.3,128.3,259.7,128.2z"/>
					<path class="st0" d="M266.1,117.6l-1.3,1.8c0.2,0.6,0.3,1.2,0.4,1.8C265.6,120,265.8,118.8,266.1,117.6z"/>
					<path class="st0" d="M266.3,153.4c1,0.6,2,1.3,3.1,2c3.5-0.2,5.5-1.2,4.1-1.9C271,153.1,269.5,152.5,266.3,153.4z"/>
					<path class="st0" d="M291.9,139.2c-1.8,1.4-4,2-7.1,3.3l12.1-2.9C295.2,139.4,293.6,139.2,291.9,139.2z"/>
					<path class="st0" d="M296.3,148.2c1.7-0.1,4.3,0.7,6.3,1.2c2,0.4,3.4,0.3,2.8-2c-1.7,0.1-3.4-0.7-4.9-0.9
						C299,146.2,297.6,146.4,296.3,148.2z"/>
					<path class="st0" d="M275.7,193l0.1-0.7l-19.3-6.6C262.9,188.1,269.3,190.6,275.7,193z"/>
					<path class="st0" d="M295.9,255.7c6.7-0.7-9.3-8.5-1.9-8.1c-3.3-3.7-6-0.4-8.6-3.8C287.8,249,284.6,248.4,295.9,255.7z"/>
					<path class="st0" d="M285.3,243.9c-0.4-0.8-0.9-1.7-1.7-2.9C284.2,242.3,284.8,243.2,285.3,243.9z"/>
					<path class="st0" d="M177.8,110c0.6,1.4,1.1,2.8,1.6,4.2c-0.4-2.3-0.9-4.5-1.3-6.8L177.8,110z"/>
					<path class="st0" d="M179.8,94.8l0.9,12.9c0.1-3.9,0.3-7.9,0.5-11.8C180.9,96.5,180.2,97.7,179.8,94.8z"/>
					<path class="st0" d="M117.3,323.9l1.4-2.8c0.7-3.4,0-3.9-1.4-5.1C117.3,318.6,117.3,321.2,117.3,323.9z"/>
					<path class="st0" d="M80.9,290.9l0.4,0.7c2.1-3.3,4.3-6.6,6.4-9.9L80.9,290.9z"/>
					<path class="st0" d="M44.7,275.4c0.6,1.5,3.7,1.2,4.3,2.6C45.2,276.9,55.8,265.9,44.7,275.4z"/>
				</g>
			</g>
		</g>
	</g>
</g>
<g>
	<g>
		<g>
			<g>
				<g>
					<path class="st1" d="M83.8,249.4c-0.2-1.8-7.2,2.8-8.6,3.4c1.6,0.9,4.2-0.3,6.2-1.5C83.3,250,84.7,248.8,83.8,249.4z"/>
					<path class="st1" d="M113.3,255.8l-2.6,2.3c2.7-1.4,5.2-2.8,7.7-4.4C116.8,254.5,115.1,255.2,113.3,255.8z"/>
					<path class="st1" d="M129.3,266.6c2.2-6.9,0.6-7-1.8-6.4c-1.2,0.3-2.7,0.8-3.8,0.8c-1.1,0-2-0.4-2-2l1.4-3
						c-2.6,2.9-5.2,5.7-7.9,8.5c2.4,0.6,5.8,0,8.6-0.2C126.7,264.1,128.8,264.2,129.3,266.6z"/>
					<path class="st1" d="M130.4,299.9c0.4-2.8,1.4-3.7,1.5-3.8c0.1-0.1-0.7,0.7-4.2,1.2c0.1,0.7,0.1,1,0.1,1.5
						C128.4,298.9,129.2,299.1,130.4,299.9z"/>
					<path class="st1" d="M127.8,298.8C124.9,298.3,128.2,303.8,127.8,298.8L127.8,298.8z"/>
					<path class="st1" d="M140.6,298.7c-1.4,1.4-2.9,2.8-4.4,4.2c0,3.4,3.1,4.7,1.4,6.9C141.8,307.8,141.5,304.4,140.6,298.7z"/>
					<path class="st1" d="M145.3,289c-0.6,0.6-1.2,1.2-1.8,1.8C143.5,292.2,143.8,292.8,145.3,289z"/>
					<path class="st1" d="M139.3,294.5c1.5-1.2,2.9-2.4,4.2-3.7c0-2.3,0.8-6.9-1.8,1.3C142.7,288,141.4,291.9,139.3,294.5z"/>
					<path class="st1" d="M137.8,292c-0.5-1.7-1.2-3.2-1.2-4.8c0-1.5,0.7-3.1,2.7-5.2c-2.9,0.3-5,2.7-5.5,5.2
						C133.2,289.7,134.5,292.2,137.8,292z"/>
					<path class="st1" d="M136.3,253.6c0.1-1.5,0.2-3,0.4-4.4c-1.1,1.3-2.2,2.5-3.3,3.7c0.9-0.9,1.1,0.3,1.4,1.2
						C135.1,255,135.4,255.6,136.3,253.6z"/>
					<path class="st1" d="M158.3,308.1c0.3-3-0.6-8.1-0.6-12c-0.7,1.1-1.3,2.3-2.1,3.4C156.5,301.6,158.3,303.6,158.3,308.1z"/>
					<path class="st1" d="M157.7,296.1c1-1.7,1.9-3.4,2.8-5.1C158.3,290.3,157.7,292.7,157.7,296.1z"/>
					<path class="st1" d="M148.2,273.4c-1,1.7-2,3.4-3.1,5c-1.1,1.7-2.3,3.3-3.5,4.9c1.4-1.6,2.7-3.2,4-4.9c1.3-1.6,2.4-3.3,3.5-5.1
						L148.2,273.4z"/>
					<path class="st1" d="M168.4,308.5l-1.2,7.1c0.8-3.6,1.5-7.1,2.2-10.7L168.4,308.5z"/>
					<path class="st1" d="M173.9,307.1c-0.6,5.9,1.6,9.8,0.9,13.4c1.3-1.1,2.3-6.2,3-10.7C176.8,312.3,175.6,311.7,173.9,307.1z"/>
					<path class="st1" d="M179.1,303.1c-0.5,1.4-0.9,3.9-1.3,6.6C178.3,308.4,178.7,306.4,179.1,303.1z"/>
					<path class="st1" d="M164.6,292.5c0.2,1.8,0.6,6.6,2,8.7l-1-8.5C165.3,292.5,164.9,292.5,164.6,292.5z"/>
					<path class="st1" d="M165.5,292.3v0.3c1,0.2,1.7,0.4,1.9,0.5C167.2,293,166.7,292.8,165.5,292.3z"/>
					<path class="st1" d="M164.4,292.4c0.1,0,0.1,0,0.2,0C164.5,291.6,164.5,291.4,164.4,292.4z"/>
					<path class="st1" d="M154.2,281.9c1-2.3,2.2-4.7,2.9-7.5s0.8-5.9-0.2-9.6c-0.6,2.9-0.7,5.4-0.8,8.1
						C155.9,275.6,155.6,278.4,154.2,281.9z"/>
					<path class="st1" d="M163.3,281.8l-2.4-2c0,2.3,0.4,5.6-0.4,7.9C161.5,285.7,162.4,283.7,163.3,281.8z"/>
					<polygon class="st1" points="164.4,279 163.3,281.8 164.1,282.5 					"/>
					<path class="st1" d="M175.2,295.3c0.7-3.8,1.6-4.1,2.6-4.8c-1.2-1.6-2.4-2.5-3.5-2.4C174.3,290.9,174,295.7,175.2,295.3z"/>
					<path class="st1" d="M170.7,293.2c0.1-0.2,0.1-0.3,0.2-0.5C170.8,291.9,170.7,291.7,170.7,293.2z"/>
					<path class="st1" d="M188.2,289.9c-0.1-0.5-0.2-1-0.3-1.5c0,0.5,0.1,0.9,0.1,1.5H188.2z"/>
					<path class="st1" d="M174,286.6c-0.9-1.6-1.3,0.5-1.7,3.1c0.6-0.9,1.3-1.5,2-1.6C174.3,287,174.3,286.2,174,286.6z"/>
					<path class="st1" d="M181.8,299c-0.6-1.8-1.2-3.2-1.8-4.6C180.7,297,181.8,301.2,181.8,299z"/>
					<path class="st1" d="M171.3,295c0,0.1-0.1,0.3-0.1,0.4C171.6,297.2,171.5,296.3,171.3,295z"/>
					<path class="st1" d="M171.3,295c0.4-1.3,0.7-3.4,1-5.3c-0.5,0.7-1,1.6-1.4,2.9C171.1,293.3,171.2,294.2,171.3,295z"/>
					<path class="st1" d="M186.3,235c0.6,7.9-0.8,15.4-3.2,7c-1.2,6.1,1.9,31.9,4.8,46.3c-0.2-3.4-0.5-6.6,1-11.5
						c-1.1-4.2-5-9.7-4-17c2-4.3,2.2,2.6,3.7,6.7c-1.9-9.7,1.7-14.6-0.2-29l-1.5,5.3C186.7,240.6,187.1,237,186.3,235z"/>
					<path class="st1" d="M184.2,287.8l-0.7,1c1,1.3,1.9,4.4,3.6,10.5c1.1-4,1.1-6.9,1-9.6l-4-0.8L184.2,287.8z"/>
					<path class="st1" d="M179.8,289.1c0.1-8.6,1.7-12.4-0.1-21.7c-2.2,0.7-1.1,7.3-2.2,11.1c3.6-2.4-0.8,4.9,2.2,9.6
						c-0.7,1.5-1.3,2-1.9,2.4c0.7,1,1.5,2.3,2.2,3.8c0-0.2-0.1-0.4-0.1-0.5l0,0v-0.1c-0.2-1.1-0.3-1.7-0.1-1.1
						c0-0.1,0.1-0.1,0.1-0.2C179.8,291.3,179.8,290.2,179.8,289.1c1.2,1.8,0.3,2.3,0,3.3c0,0.4,0,0.9,0,1.3v0.1l3.5-5
						C182.5,287.7,181.6,288,179.8,289.1z"/>
					<path class="st1" d="M160,246.4c0.1,0.8,0,1.4,0,2C160.3,247.4,160.4,246.7,160,246.4z"/>
					<path class="st1" d="M161.3,251.7c-0.3,1.2-0.6,4.6-1.5,3.7c-0.7-2.6,0.2-4.1,0.2-7c-0.6,2.3-2.2,6.1-0.6,10.4l0.3-1.2
						c0.7,1.5,1.6,5,2.2,8.2c0.7,3.2,1.1,6.2,1,6.8C162.5,264.8,162.1,259.3,161.3,251.7z"/>
					<path class="st1" d="M170.3,268.4c1-1.4,1.9-2.9,2.8-4.4l-1.8-7.4l0.3,4.5C169.8,259.4,170.4,264.9,170.3,268.4z"/>
					<polygon class="st1" points="188.9,294.1 189.3,303.2 190,290.2 					"/>
					<polygon class="st1" points="193,292.7 193.6,300.5 194.3,295.7 					"/>
					<path class="st1" d="M208,136.3l-1.8,1.4C206.8,137.4,207.4,136.9,208,136.3z"/>
					<path class="st1" d="M209.9,138.8l2.8-2.8C211.1,137.5,210,138.6,209.9,138.8z"/>
					<path class="st1" d="M308.5,231.8c7.2,2,18.3,5.3,10.4,1.3l-7.9-3.6C311.8,231.5,310.5,231.9,308.5,231.8z"/>
					<path class="st1" d="M264.2,146.8c-0.8,0.3-1.7,0.6-2.5,0.9c3-0.3,5.8-0.6,8.3-0.9C268.2,146.8,266.3,146.8,264.2,146.8z"/>
					<path class="st1" d="M229,153.8c1.7-0.8,3.5-1.5,5.2-2.3C232.3,152.2,230.6,153,229,153.8z"/>
					<path class="st1" d="M184.9,132.2l-4.8,7.4C181,140.1,182.7,136,184.9,132.2z"/>
					<path class="st1" d="M245.5,280c3,2.6,5,3.5,6.3,3.5C247.5,279.7,242.9,273.3,245.5,280z"/>
					<path class="st1" d="M270.3,68.5c-1.6,0.7-3,1.8-4.2,3.3C267.6,71.2,269,70.2,270.3,68.5z"/>
					<path class="st1" d="M256.3,281.8c-0.7-0.7-1.2-0.9-1.8-1.5c-0.4,1.7-1.1,3.2-2.8,3.2C254.9,286.3,257.7,287.7,256.3,281.8z"/>
					<path class="st1" d="M154.2,124.5c-0.4-0.1-0.6-0.2-1-0.4C154.3,124.7,154.4,124.7,154.2,124.5z"/>
					<path class="st1" d="M61.2,123.6c-0.5-0.6-0.3-1.4-0.3-2.2C60.3,121.6,60.2,122.2,61.2,123.6z"/>
					<path class="st1" d="M211,294.3C209.8,295.1,211,295.3,211,294.3L211,294.3z"/>
					<path class="st1" d="M201.6,261c0.1-1,0-2.2-0.2-4.2C201.5,258.8,201.6,260.2,201.6,261z"/>
					<path class="st1" d="M236.9,231.5C236.9,231.4,236.9,231.5,236.9,231.5C235.7,230,236,230.3,236.9,231.5z"/>
					<path class="st1" d="M208.5,290.7c0.6,1,1.4,1.8,2.1,2.3C210.2,292.4,209.5,291.6,208.5,290.7z"/>
					<path class="st1" d="M209.3,294.7c-0.3-0.2-0.5-0.3-0.7-0.4c-0.1-0.1-0.3-0.2-0.4-0.3c0,0.7,0.1,1.3,0.3,1.5
						c0.1,0.1,0.2,0.1,0.3,0C208.8,295.4,209,295.2,209.3,294.7z"/>
					<path class="st1" d="M212.8,293.6c-0.7,0.2-1.5-0.1-2.2-0.6c0.3,0.6,0.5,1,0.5,1.3C211.4,294.2,211.9,293.9,212.8,293.6z"/>
					<path class="st1" d="M161.2,90.7c0-0.2-0.1-0.5-0.1-0.8C161,93.5,161.1,92.9,161.2,90.7z"/>
					<path class="st1" d="M228.5,175.2c0.2,0.1,0.3,0.1,0.4,0.2c0.1,0,0.2,0,0.3,0L228.5,175.2z"/>
					<path class="st1" d="M222,172.2c11,3.4,9.6,3.5,7.2,3.2c8.5,2.3,17,4.6,25.5,6.7C243.8,178.6,232.9,175.3,222,172.2z"/>
					<path class="st1" d="M199.6,133.1c-1.1,2.4-2.2,4.8-3.4,7.1c-2.1,2.4-3.5,4-4.6,5.2s-1.8,1.9-2.5,2.6c-1.3,1.4-2.1,2.8-4.8,7.6
						c7.6-11.3,8.9-11.2,10.1-11.2c0.6,0,1.3,0,2.7-1.3c1.5-1.3,3.8-4,8-9.4c-0.9,1.7-1.9,3.3-2.9,5c0-0.3-1,0.9-1,0.6
						c-3.4,5.6-0.2,1.8,3.8-2.7c4-4.6,8.8-9.9,8.4-7.7c-0.8,2.1-3,5.3-5.4,7.5c1.8-1.4,3.6-2.8,5.5-4.1c0,0.7-3.3,4.1-3.2,3.5
						c1-0.1,2.1-0.1,3-0.2l-0.6,0.6c3.1-2.9,8.3-7,10.6-8.7c-2.4,3.2-2.3,1.8-4.6,4.3c1.8-1.3,3.7-2.5,5.6-3.7c-2.4,2.6-5,4.9-7,6.4
						s-3.3,2.2-3.2,1.6c-9.3,9.9-8.1,8.7-5.6,6.7c1.2-1,2.7-2.2,3.3-2.3c0.5-0.2,0.1,0.6-2.6,3.5c-1,0.6-2,1.2-3,1.8
						c-2.8,2.7-5.5,5.2-8.6,8.1c-1.2,1.2-2,2-5.7,5c2-1.5,6.7-5.4,11.4-9.6c4.7-4.1,9.5-8.5,12.4-10.3c-1.4,1.6-2,2.4,2.6-0.6
						c-7.6,6-5.5,4.8-4.7,4.9l-10.4,7.5c3.2-1.9,8.5-5.6,13.5-8.5c-0.6,1.3-8.9,6.8-16,11.3c-0.8,0.7,2.6-1.4,6.4-3.9
						c3.8-2.5,8-5.4,9.4-5.4c-1.4,1.3-1.6,1.7-0.9,1.7c1.1,0,4.8-1.4,9.5-2.7c-1.8,1.3-3.6,2.1-5.3,2.8s-3.4,1.4-5,2.3
						c3.2-1.3,6.3-2.6,9.5-3.7c-0.2,0.3-3,1.5-4.5,2.1c1.9-0.6,4.8-1.8,7.7-3s5.8-2.3,7.6-2.4c6.6-2.6,2.1,0.1-2.2,2.6
						c-2.2,1.2-4.3,2.4-4.9,3c-0.6,0.6,0.3,0.6,4.2-0.2c-3.4,1.4-7.5,2.3-12.2,3.9c5.2-0.9,7.2-0.9,9.6-1.2
						c2.4-0.2,5.2-0.7,12.3-1.5c-2.6,1.3-5.1,2.5-7.7,3.7c4.5-1.7,9.6-2.9,14.8-3.7c5.2-0.7,10.4-1,15.2-1c4.4-1.6,8.2-3,10-3.8
						c2.5,0.6,5,1.2,7.4,1.9c-2,0.8-6.4,1.3-11.7,1.9c1.1,0,2.1,0,3.1,0c-4.4,2.1-11.8,2.8-18.9,3.6c2.5-0.9,5.1-1.8,7.5-2.6
						c-7.8,0.9-16.3,2.2-23.6,4c1.5-0.2,2.8-0.2,3.6,0c-2.1,0.3-4,0.6-5.2,0.9c-1.3,0.4,1.5,0,4.8-0.3c-4.6,1.2-9.2,2.3-13.9,3.4
						l5.6-1c-1.4,0.8-2.7,1.5-4.1,2.3l-1,0.6l-0.5,0.3l-0.5,0.2l-2.1,0.8c7.2-0.5,16.1-0.9,24.1-0.5s14.9,1.5,18.1,3.7
						c-5.3-0.4-9.6-0.2-14.1,0s-9.3,0.5-15.5,0.7c6.6-0.6,5.1-1.2,2.3-1.7s-6.9-0.7-5.6-1.5c-1.3,0.8-7.2,1.2-9.3,1.3
						c4.1,0.2,8.1,0.6,12.2,1.3c-10.2,0.4-7.6,0.8-11.7,1.4c20.1-0.9,13.6,1.6,19.9,3c-6.8-0.2-13.8-0.8-12.2-1.8
						c-7.6,0.5-1.6,0.9,4.7,1.6c6.3,0.7,12.9,1.8,6.4,2.1c-0.2-0.4,0.8-0.5-2.6-0.8c3.1,0.6,3.4,1.4,2.3,1.8
						c-1.2,0.4-3.8,0.5-6.8-0.1l-0.2-0.3c-1.1,0.9-1.1,2.2,1.3,4c2.5,1.8,7.3,4.1,16,6.5c-2.1-0.5-19.6-5-24.4-6.2
						c9.7,2.8,19.4,5.9,29.1,9.4c2.4,0.9,4.8,1.8,7.2,2.7l3.6,1.4l3.5,1.4c4.6,1.9,9.1,3.9,13.7,5.9c-3.5-1.3-8.3-2.7-13.5-4.3
						c-2.7-0.8-5.5-1.6-8.4-2.5c-3-0.9-6-1.8-8.9-2.7c-11.7-3.6-22.6-7.3-26.8-9.2c-2.2-0.2-4.6-0.7,0.5,1.9
						c1.1,0.2,6.4,1.9,11.7,3.5s10.4,3.3,11.1,3.8c-8.3-2-10.6-2.6-12.5-3s-3.6-0.6-10.6-2.7c1.6,0.4,8.2,2.9,14.2,5.4
						s11.5,5.2,11,5.6c-3.4-1.5-22.7-9.2-25-10.4c7.4,3.6,14.8,7.4,22.1,11.6c-3.9-2.4-19-8.4-25.4-11.1c2.2,0.9,2,1.2,1.6,1.4
						c-0.5,0.2-1.3,0.4-0.2,1.1c1.8,0.7,3.6,1.3,5.3,1.9c-2,0.1,5.7,4.5,13.4,9.5c3.9,2.5,7.8,5,10.5,7.2c1.4,1.1,2.5,2,3.2,2.8
						s0.9,1.4,0.6,1.7c-2.1-1.5-8.9-5.8-15.5-9.7s-13.1-7.5-14.6-7.9c5.4,3.5,18.3,12.2,30.3,21.5c0.7,0.6,1.5,1.2,2.3,1.8
						c0.7,0.5,1.3,1.1,2,1.6c1.3,1.1,2.6,2.1,3.8,3.2c2.5,2.1,4.8,4.2,6.9,6.1c4.1,3.9,7.1,7.3,8.3,9.5l-5.8-3.2
						c1.4,2.3,2.7,4.7,4,7.1c-3.1-3.1-7-7.1-11.4-11.3c-2.2-2.1-4.5-4.3-6.9-6.6c-0.6-0.6-1.2-1.1-1.8-1.7c-0.6-0.6-1.2-1.1-1.9-1.8
						c-1.4-1.2-2.8-2.4-4.2-3.7c-11-9.8-22.4-18.6-28.8-23.3c-5.2-2.6-7.4-4.6-7.2-3.4c-2.9-1.8-5-3.4-6.5-4.5
						c-1.4-1.1-2.2-1.8-2.3-2c-1.4-0.4-2.9-0.9-4.3-1.5c6.1,4.4,9,6.9,11.5,9.3c2.5,2.4,4.7,4.7,9.6,8.6c-1.7-2-3.5-4-5.4-5.8
						c-1.8-1.9-3.8-3.7-5.7-5.5c6.2,4.3,14.7,10.7,21.1,16.4c3.2,2.9,5.8,5.5,7.4,7.5c1.6,2,2.1,3.4,1.1,3.5
						c-2.6-1.6-7.6-6-12.6-10.3s-9.9-8.5-11.8-10.1c1.9,1.7,3.6,3.6,4.3,4.8c0.8,1.2,0.6,1.7-0.8,0.5c-1.8-1.9-3.7-3.9-5.6-5.8
						c-2.4-1.5,1.1,1.9,3.7,4.9c1.3,1.5,2.4,2.8,2.4,3.1c0,0.4-1-0.2-3.8-2.5c-0.5-0.2-4.2-3.4-6.9-5.8c-2.7-2.4-4.4-4-1.4-0.9
						c10,9.8,20.5,20,30.7,30.1c3,2.9,5.9,5.8,8.7,8.6c2.6,2.6,5,5,7.2,7.3c4.4,4.5,7.9,8.3,9.7,10.5c-0.5-0.3-4.2-2-8.3-4.5
						c-4.2-2.5-8.9-5.7-11.8-8.3c-1.1-1-2.3-2.2-3.4-3.4c-1.2-1.3-2.4-2.7-3.6-4.2c-2.4-2.9-4.8-5.9-7.1-8.9
						c-4.7-6-9.5-11.6-13.6-15.7c2.7,3,5.6,7,6.5,8.3c-2.7-2.3-8.1-9.5-7.8-7.6c9.5,11.5-2.8,0.1,7.6,9.9c0.8,1.9,0,1.5-1.1,0.7
						s-2.4-1.9-2.9-1.4c3.1,3.7,7.8,10.3,11.5,16.6c1.9,3.1,3.6,6.2,4.7,8.6c1.1,2.4,1.8,4.3,1.9,5.3c-0.9-1.5-2.2-3.1-3.3-4.6
						c-1.2-1.5-2.2-2.8-2.9-3.7c-1,0-2.1-0.2-3.2-0.7c-1.1-0.4-2.2-1-3.3-1.6c-2.1-1.1-4.1-2.3-5.5-1.9c-1-1.5-2.3-3.1-3.6-5
						s-2.6-4.2-3.8-6.9c0.8,2.3,2.7,6.7,2,7.2c-3.4-5.3-3.2-5.9-3.1-6.7c0.1-0.8,0-1.9-3.7-8.4c3.6,7.4,3.3,10.6,4.1,15.6
						c2.7,5.7,3.7,6.1,3.9,4.4c0.2-1.7-0.6-5.3-1.3-7.8c4,7.8,7.6,16.1,9.7,23.1c2.2,7.1,3,13.5,2.3,17.7c-2,4.8-5.6-9.9-5.3-7.5
						c-1.8-0.4-2.4,1.3-2.5,3.8c-0.1,2.5,0.3,5.9,0.6,9s0.5,6,0,7.4s-1.8,1.4-4.1-1.3c-2.6-5-3.9-10.2-5-15.1s-1.9-9.4-3.1-13.1
						c0.7-2.2,2-0.7,3.5,1.3c1.5,1.9,3,4.3,3.8,3.9c-1.3-1.5-2.5-3-3.6-4.5c-0.3-3.6,0.3-6.4,2.2-3.6c-2.4-4.5-4.6-4.5-7.1-4.5
						s-5.4,0.2-8-4c0,3.6-0.7,7.5,0.5,11.7l1.1-1.7c1.3,4.2,1.3,7.2,1,9.7c-0.2,2.5-0.6,4.4,0.7,6.2c-0.3,1.6-0.6,3.4-1,5.1
						c-0.2,0.9-0.4,1.7-0.6,2.5c-0.2,0.8-0.3,1.6-0.5,2.2c-0.7,2.7-1.8,4-3.4,1.7l-2-12.1c0.5,3.6,2.6,7,2.8,3.2
						c-0.2,2.8-1.7-1.2-3-3.9c-1.3-2.7-2.5-4.1-2.1,4l2.8,8.2c-1.1,6.3-2.1,19.5-4.9,15.9c2.3,11.9,0.4-1.4,3.6,12.5
						c-3.4-17.4,6.4,0,1.8-18.1c1.8,8.1,2.8,9.7,3.8,11s2.1,2.3,4.1,9.1c-0.6-4-1.8-7.6,0.5-5.9c0-1.2-0.1-2.7,0-3.6
						c0.1,0.1,0.2,0.2,0.2,0.3c-0.1-0.2-0.2-0.3-0.2-0.5c0.1-0.6,0-0.8-0.1-0.2c-0.8-1.7-1.4-3.8-1.9-6c0-2.3,0-4.1,0.4-5.5
						s1-2.5,1.6-3.4c1.1-1.9,2.3-3.2,2.5-5.6c1.9,1.7,0.2,4.7,1.9,8.8c0.3-2.5,0.5-4.9,0.7-7.4c1,4.4,2.8,7.9,4.1,11
						s2.1,5.8,0.5,8.7l3.8-0.2c3.4,4.5,7.2,5.9,8,1.8c1.2,0.8,1.6-1.9,1.7-3.8c0.1-1.9,0-3.1,0.4,0.4c1.4-2.2,2.6-4.4,3.8-6.6
						l0.9,2.1c1.5-0.1,2.6-1.2,3.6-2.6s1.8-3.1,2.8-4.3c2-2.5,4.6-3.3,11.6,2.8c0.7-2.7,1-5.8,5.2-4.8l4.7,6.4
						c0.4-1.7,3.2-0.8,5.4-0.6c2.3,0.3,4,0,2.1-3.6c3.7,4,6.4,5.8,8.5,6.2c2.1,0.4,3.6-0.4,4.7-1.8c2.3-2.7,3.1-7.3,6.2-7.3
						l-6.7-7.7c1.4-0.7,2.1-2,2.5-3.9c0.2-0.9,0.3-1.9,0.3-3.1c0-1.1,0-2.4-0.1-3.7l-6.6-6.1c-0.8-1.8-0.6-2.6,0.2-3.1
						c0.8-0.5,2.2-0.5,3.8-0.4c1.6,0.1,3.4,0.2,4.9,0s2.9-0.6,3.4-1.7c1.2,1.2,1.5,1.9,1.2,2.2s-1.3,0.2-2.3-0.1
						c4.9,2.2,7,1.9,7.8,0.6c0.4-0.7,0.4-1.6,0.2-2.7c-0.2-1.1-0.6-2.3-1.1-3.6c-0.9-2.5-2.1-5-2.1-6.7s1.1-2.4,4.8-1.6
						c-2.2-2.9-0.8-3,1.5-2.7c0,0.1,0.1,0.3,0.3,0.5c0.1-0.1,0.3-0.2,0.3-0.4c1.6,0.3,3.4,0.7,4.9,0.8c-2.1-0.6-3.9-1-4.8-1.1
						c0.3-1-0.1-2.9-1.5-5.3l8.7,4.1c-0.1-0.2,0-0.3-0.1-0.5c3.8,0.3-3.6-3.2-10.3-6c-1.1-1.4-2.6-2.9-4.5-4.4
						c7.1,3.1,6.3,1.6,5.6,0.2c-0.7-1.4-1.4-2.8,6.4,0c-3.5-2.2-4.4-4.5-6.3-7.2c-2-2.7-5.1-5.7-13.1-9.1c2.1,0.8,3.2,0.8,3.2,1.5
						c2.1-0.6,4.2-1.4-0.1-4.2l11.8,3.5c-5-2.9-10.1-5.7-15.3-8.3c7.4,0.5,11.8,0.7,20.6,5.6c-3.3-2.3-5.3-3.8-6.6-4.8
						c-1.3-1-1.9-1.7-2.5-2.3c-1.2-1.2-2.4-2.4-9.4-5.9l7.8,2c-0.1-0.7-2.7-2.3-4.5-3.5s-2.8-2.1,0.5-1.9c7.5-0.1,8.2-4.1,8.5-8.8
						c0.2-2.3,0.2-4.8,1-7.3s2.5-4.9,5.7-7.2c-11.6,1.1-9.1,0.1-5.9-1.3c3.1-1.4,6.9-3.2-2.2-2.8c5.4-0.8,8.4-2.4,13.4-1.2
						c-3-2.2-1-4.2-0.3-5.9s0.2-3.3-7.6-3.7c5.4-1.4,8.1-0.2,11.3-1.2c-1.2-0.2-5-0.8-1.8-1.9c3.1-1.1,4.7,0,7.2,0.5
						c-0.2-0.6-0.7-1.2-1.4-1.7c-0.3-0.2-0.7-0.4-1.2-0.6c-0.4-0.1-0.9-0.2-1.4-0.3c-2.1-0.3-4.8-0.2-8,0
						c-6.4,0.5-14.5,1.9-22.3,3.3c7-3.3,5.8-4.2-4.7-3.2c5-1.8,10-4.2,12.4-2.2c0.2-0.7,1.6-3.3,1.3-5.3c-0.3-2-2.3-3.5-8.4-1.8
						c3-1.3,0.4-2.2-1.2-2.1c-0.2-3.3,0.7-4-1.5-6.6l-1.6,1.6c-7.4,2.1-8.4,1.9-7.9,0.9s2.5-2.9,1.2-3.6l1.5-0.6
						c2-2.4,2.6-3.7,2.6-4.3c-0.1-0.6-0.8-0.7-1.4-0.7s-1.2-0.1-1.1-0.8c0.1-0.7,1-2.1,3.1-4.9l-8.3,4.8c-7.9,3.9-7.4,2.8-5.1,0.2
						c1.6-1.8,4-4.2,5.4-6.2s1.7-3.5-0.7-3.1c-1.3,1.3-2.7,2.6-4,3.9c-1.7,0.6-1.2-0.3,0.4-2.1c1.7-1.7,4.5-4.3,7.5-7.2
						c6.1-5.6,12.9-12.3,13.3-14c1.2-1.5,2.8-1,4.3-1.2c1.6-3,1.7-4.2,0.9-4.1c-0.8,0-2.5,1.2-4.5,2.7c-4,3-9.5,7.2-11.9,6.5
						c2.5-2.4,6-4.8,8.9-7s5-4.2,4.5-5.8c1.6-2.3-4.1-0.8-9.2,0.4c-5.1,1.1-9.4,1.7-6.1-4.2c-3.1,4.3-6.4,8.3-10.5,9.8
						c-1.6-0.3,0.7-5,1.5-8.6c0.8-3.5,0.3-5.7-6.1-0.3c0.7-1.3,1.5-2.4,2.4-3.4c-4.3,1.8-9.5,1.2-15.9,7.5c9.6-13.5,4.6-12.2,0-10.3
						c-4.7,2-9.1,4.6-0.6-8c-1.9-0.6-3.8-1.2-5.6-1.7l1.8-2.5c-2-3.7-6.9,2-11.7,7.6c0.4-2.2,2.4-4.4,3.2-5.7c-0.6-3.9-1.2-5.7-3-5
						c-1.8,0.6-4.9,3.7-10.2,9.4l4.4-8.9c-1.9,2.3-1.5-2-2-5.8c-0.2-1.9-0.7-3.7-1.6-4.5c-0.9-0.8-2.4-0.6-4.7,1.5
						c0.5-1,1.5-2.7,2.4-3.8c-4.9,4-4.5-3.4-5.3-8c-0.2-1.2-0.5-2.1-0.9-2.7s-1-0.7-1.9-0.2c-1.6,1-4.3,4.5-8.5,12.5
						c-2.3,2.2-4.6,4.4-6.9,6.7c1.5,2.2-0.3,5.7-2.5,9.4c-2.2,3.7-4.8,7.8-5.2,10.8c-1.2,0.7-1-2.3-0.3-5.5c0.7-3.2,2-6.7,3.3-7.1
						l-0.4,1.8c4.1-8.5,3.5-10.6,2.4-12c-1.1-1.5-2.7-2.2-0.3-8.2c-4.9-1.4-9.2-5.3-14.5-9.2c-1.3-1-2.7-1.9-4.2-2.8
						c-0.7-0.5-1.5-0.9-2.2-1.3c-0.8-0.4-1.6-0.8-2.4-1.2c-0.8-0.4-1.6-0.7-2.4-1c-0.8-0.3-1.7-0.6-2.5-0.8
						c-1.7-0.5-3.5-0.8-5.3-0.9c0.5,4.9,0.9,9.8,1.2,14.7c-1.4-0.3-2.8-0.6-4.2-0.8c-1.2-3.4-2.1-11.4,1.5-10.9
						c-1-4.1-2.5-2.3-3.6,0.9s-1.7,7.9-1.6,9.5c-3.3-2.7-3.4-6.9-2.4-10.6c0.9-3.7,2.8-6.7,1.6-6.8c-1,0.4-2,0.9-3.1,1.4l0.9,1.6
						c-1.9,6.2-1.1,12.5-5,12.4c-1.5-1.2-2.2-3.3-2.8-5.2c-0.5-1.9-0.8-3.5-1.4-3.7c-0.2-1-0.7-1.4-1.7-0.1
						c-2.1,0.1-4.3,0.2-6.4,0.5c1.9,3.4,3.8,6.9,5.5,10.4c-0.8,6.1-4.9,0.9,1.3,12.7c-4.5-9.2-10.1-9.1-14.3-7.2
						c-2.1,1-3.9,2.4-5.5,3.3c-1.5,0.9-2.9,1.3-4.1,0.3c0.9,4.4,0.9,6.9,0.2,8.5c-0.4,0.8-0.9,1.4-1.6,1.8c-0.6,0.5-1.4,0.8-2.3,1.1
						c2.2,1.3,10.4,11.4,7.5,11.7c-4.1-5.3-6.8-8.4-8.8-10.1c-2.1-1.7-3.5-2.1-4.9-2.2c-2.7-0.2-5.1,0.6-12.9-5.3
						c5.4,3.7,4.1,6,3.8,8.5C99,58.7,99,60,100,61.6c1,1.6,3.1,3.5,7,6c-1.6,0.1-3.5-1.5-5.7-3.6c-2.2-2-4.8-4.5-7.8-5.9
						c1.8,5.8-1.5,7.1-5.6,8.4c-4.1,1.2-9.1,2.4-9.5,6.4c2.9,2,8.1,3.9,11.7,7.9C85,79.1,79.4,77,73.7,75.1c0.4,1,4.6,3.9,7.2,6
						c2.7,2.1,3.8,3.3-2.1,1.3c2.7,1.2,6.8,3,7.4,4.3c-5.3,0.6-7.9,2.8-9.3,5.6c-0.7,1.4-1.1,2.9-1.3,4.5c-0.3,1.5-0.4,3.1-0.7,4.7
						c-0.6,3.3-1.6,6.5-4.6,9.6c-0.8,0.8-1.7,1.6-2.7,2.2c-1,0.7-2.2,1.3-3.5,1.9c-2.7,1.2-6.1,2.4-10.4,3.5
						c7.1-0.6,7.4,1.1,7.4,2.7c1.8-0.6,8.5,2,13.2,2.8c-4.7,0.9-9.3,2.1-13.9,3.5c6.5,1.7,6.5,3.3,6.7,4.9c0.1,1.6,0.2,3.1,6.6,4.1
						c-0.8-0.7-1.6-1.4-2.3-2.1c7.5,2.1,15.8,2.1,24.5,2.4c4.4,0.1,8.8,0.3,13.3,0.7s9.2,0.9,13.9,1.7c-8.3-2-2.1-2.1,3.2-2
						c2.7,0.1,5.1,0.1,5.5-0.2c0.3-0.4-1.4-1.3-7.2-3.4c3.9,0.6,5.9,2,10.2,2.9c-7.8-2.5-9.3-3.8-5.4-3.8l1.9,0.7
						c-0.6-1.6,1.3-2.1,4-2.3c2.8-0.2,6.4-0.1,9.9-1.2l-8.7-3.7c1.6-0.4,4.4,0.7,6.7,1.3c-12.4-7.4-2,2.3-15.8-5.5
						c9,3.4,9.9,1.8,11.1,0.4c1.2-1.4,2.6-2.5,12.4,2.4c0.4-0.5-2.1-1.8-4.5-3s-4.9-2.5-4.5-3.1l5.3,2.6l-6.5-4.1
						c1.6-0.2,8.2,3.2,12.5,5.7c-0.6-0.1,0.9,1.2,1.2,1.6c3.3,1.3,3.1,0.4,2.4-0.7c-0.7-1.1-1.9-2.5-0.9-2c-1.2-0.4-2.4-0.7-3.7-1
						c-1.5-2.9,0-4,0.7-5.4s0.7-3-2.8-8.1l-3.4-2.9c-2.2-3.7-0.9-3.3,0.6-2.3c0.8,0.5,1.7,1.1,2.3,1.3c0.6,0.2,1,0.1,0.7-1l0.6,0.9
						c-2.6-3.6-3.5-5.8-2.7-5.8c1.4,2.2,3.2,4,5,6c1.8,1.9,3.5,4,5.1,6.4c-2.2-4-2.9-5.5-4.4-7.8c-0.7-1.2-1.6-2.5-2.8-4.5
						s-2.7-4.6-4.6-8.3c1.5,2,2.9,4,4.4,6c-3.1-6-4.9-9-4.5-11.5c1,3.1,2.7,5.4,4.3,8c1.7,2.6,3.4,5.5,5.1,9.3
						c2.4,3.3,3,4.1,3.1,3.6c0-0.4-0.6-2.2-1-3.7c-0.5-1.5-0.8-2.9-0.4-2.4c0.4,0.4,1.4,2.6,3.5,8.2c-1.7-4.9-2.7-8-3.5-9.9
						s-1.3-2.7-1.7-3c-0.8-0.6-0.8,0.7-1.4-1.4c-1.6-3-2.9-6.6-3.5-9.3c-0.6-2.7-0.4-4.5,0.4-3.8c0.6,0,3.2,6.1,5.4,12.2
						c1.1,3,2.2,6.1,2.9,8.3c0.8,2.3,1.2,3.7,1.3,3.6c-0.1-0.1,0.3,1.4,0.2,1.3c0.6,2.6,0.2,0.8,0.1-0.6c-0.2-1.3-0.2-2.3,0.4,1.9
						c-0.7-6.2-0.6-6-0.5-6.2c0.1-0.3,0-0.9-0.4-8.8c-0.3,1.3-0.6,2.5-0.7,3.8c0-2.1-0.4-7.7,0-11.8c0.1-2.1,0.5-3.6,0.9-4.2
						s0.9-0.1,1.4,2.2c-0.2,3.2-0.7,7.4-0.9,9.7c0.2,2.3,0.3,1.5,0.5,0.8s0.4-1.5,0.5,0.9c-0.3,7.9-0.6,8.8-0.7,9.2
						c-0.1,0.2-0.2,0.3-0.2,1.1c0,0.4,0,1,0.1,1.8c0,0.5,0.1,1,0.1,1.5c0,0.2,0,0.3,0,0.5c0-0.1,0-0.3,0-0.4v-0.3V106
						c0,0.4,0.1,0.9,0.1,1.3v0.1c0,0,0,0,0-0.1v-0.1c0-0.8,0-1.2,0-0.4c0,0.4,0,0.6,0,0.9c0,0.2,0,0.3,0,0.5l0,0c0,0,0-0.1,0-0.2
						v0.2v0.1l0,0v-0.6c0-1.4,0-2.3,0-2.9c0-1,0.1-0.5,0.2,0.2c0.1,1.3-0.1,3.3,1-5l-0.9,9.4c0.1-1.5,0.8-5.9,1-5.6
						c-0.3,2-0.6,4.1-0.9,6.1l-0.6,4.9v0.3l0.1-0.7c0-0.3,0.1-0.7,0.1-1c0.1-0.5,0.1-0.6,0.1-0.4c0,0.3-0.2,1.5-0.3,3
						c-0.2,1.4-0.4,3-0.6,3.9c-0.2,0.8-0.2,1,0.2-0.4c-0.1,0,0-0.6,0.2-1.8c0.5-3.2,0.6-3.6,0.8-4.6c0.6-3.7,1.6-8.3,1.9-11.7
						c1-3.1,1.4-3,1.3-1.3c-0.1,1.7-0.7,5-1.4,8.5c-0.6,2.8-1.2,5.6-2.1,10c-0.3,1.3-0.5,2.3-0.5,2.9s0.1,0.7,0.4,0.2
						c-0.5,1.2,0.8-5.7,2.3-9.9c-0.1,1-0.2,2.4-0.6,4.2c-0.3,1.7-0.8,3.9-1.5,6.3c0.9-0.7,1.7-3.1,2.5-5.9s1.5-6.2,2.8-8.8
						c-1.6,5.6-1,4.5,0.3,1.7s3.3-7.4,4.5-8.9l-3.4,9c0.2,6.7,8.1-18.5,7.9-10.4c-2.1,3.9-4.2,7.9-6.3,11.9c0.9-0.9,1.7-1.8,2.6-2.7
						l-4.6,10c4.5-6.9,4.3-4.7,4.4-1.3c2.5-6.3,7.5-15.8,9.2-15.4c-1.4,5.7-4.5,8-1.8,7.8c-1.5,2.6-3.3,5.6-4.2,6.8
						c-1,1.3-1.1,0.8,0.3-3.4c-1.4,2.8-3,5.3-4.4,8c-0.9,3.2-0.4,3.8,0.4,3.7c0.8-0.1,2-1,2.4-0.9c-0.1-0.5-0.3-1.1,0.1-2.4
						c2.9-3.5,5.9-7,9-10.5c-1.1,3.5-2.8,5.9-4.4,8.3c1.1-0.6,3.5-4.4,4.8-4.7c-3.7,6.9-7.3,14.2-10.2,16.9l6.7-6.4
						c-1.3,3.1-2.8,9.1-4.5,11.5c-0.3,2.4,2.3-0.5,4.9-3.2c2.6-2.7,5.3-5.2,4.8-2c0.8-1.3,1.7-2.5,2.6-3.2c0.4,1.3-0.1,4.2,0.1,5.8
						c0.2,1.6,1.1,1.8,4.8-2.3c-2,4.2-4.1,8.5-6.2,12.7c1.5-1,3.5-4.9,5.7-9.1c2.2-4.1,4.6-8.5,7.3-10c2.1-1.4,0.7,1.3-1.5,4.7
						c-2.1,3.4-5,7.7-5.7,9.5c2.2-2.8,5.7-6.9,8-9.1c1.2-1.1,2-1.6,2.3-1.3c0.3,0.4-0.1,1.6-1.4,4.2
						C199.8,134.5,200.6,132.6,199.6,133.1z M215.7,138.7c-1.7,1.1-6.7,4.9-2.6,1C221.6,132.6,217.9,136.4,215.7,138.7z
						 M246.7,154.3c-3.2,0.2-1.7-0.6,1.7-1.9C249.3,152.7,249.1,153.3,246.7,154.3z M223.2,284.5c0-0.2,0-0.3,0-0.5
						C226.2,287.3,225.1,285.9,223.2,284.5z M218.1,281.1c-0.1,1.4,0.2,2.7,0.7,4c-0.3-2.4,0.6-2.7,1.8-2.3
						C219.7,280.4,218.8,278.8,218.1,281.1z M144,27.6l1.5,2.3C144,33.1,144,30.5,144,27.6z"/>
					<path class="st1" d="M233,153c1.6-0.5,3.3-0.9,5.1-1.3C236.5,151.9,234.7,152.3,233,153z"/>
					<path class="st1" d="M185.7,130.8c0-0.1,0-0.1,0-0.1c-0.3,0.5-0.6,1-0.9,1.5L185.7,130.8z"/>
					<path class="st1" d="M218.5,195.5c1.2,1,2.7,2.4,4.1,3.8C220.8,197.4,219.2,195.8,218.5,195.5z"/>
					<path class="st1" d="M201.5,300l1.6-2.7c-0.9,0.6-1.5-1.5-2.1-2.9C201.4,296.5,202.1,299.7,201.5,300z"/>
					<path class="st1" d="M180.3,242c-0.2,1.2-0.5,0.2-0.7,1.4l0.4,4.5C181,247.5,181.5,243.8,180.3,242z"/>
					<path class="st1" d="M196.2,268.3c-1-8.1-1.8-5.2-2.9-3.6c0.1,0,0.1-0.1,0.2,0C194.3,276,195.3,272.2,196.2,268.3z"/>
					<path class="st1" d="M193,265c-0.3,0.4-0.7,0.7-1.1,0.3C192.2,269.9,192.5,266.2,193,265z"/>
					<path class="st1" d="M214.1,287.2c-1.3-1.9,1.3,10.3,0.2,7.1c0.4,5.2,1.5,1.8,1.8-2C216.3,288.5,216,284.1,214.1,287.2z"/>
					<polygon class="st1" points="192.3,241.8 193.8,251.7 193.6,243.6 					"/>
					<path class="st1" d="M202.5,248c-0.8-0.8-1.5-1.7-2.3-2.5c0.2,1.7,0.1,2.7-0.1,3.4C201.4,249.1,202.9,250.9,202.5,248z"/>
					<path class="st1" d="M200.2,248.9c-0.6-0.1-1.2,0.2-1.3,1.9C199.2,250.6,199.8,250.2,200.2,248.9z"/>
					<polygon class="st1" points="194.5,238.5 195.3,240.6 196.7,241.1 					"/>
					<path class="st1" d="M225,246c0.4-1.1,0.7-2.1,1-3.2c-1.2-3.2-2.6-5-2.8-3.6C223.7,241.6,223.4,243,225,246z"/>
					<path class="st1" d="M209.6,221.1c1.1,1.9,1.8,4.1,3.2,7.2l-4-11.9C209.1,217.9,209.3,219.5,209.6,221.1z"/>
					<path class="st1" d="M212.9,217.5c-0.6-1.7-1.1-4.1-1.6-6s-1.1-3.2-1.7-2.7C210.9,212,210.5,215.1,212.9,217.5z"/>
					<polygon class="st1" points="245.6,222.1 245.4,222.5 259.8,237.8 252.9,230.1 					"/>
					<path class="st1" d="M213.5,176.5c-5-2,12.1,7,5.9,4.4c2.3,1.5,3.5,2,4.7,2.5s2.3,0.8,4.3,2.1
						C223.7,182,226.5,183.3,213.5,176.5z"/>
					<path class="st1" d="M228.3,185.5c0.7,0.5,1.6,1.2,2.8,2.1C230,186.6,229.1,186,228.3,185.5z"/>
					<path class="st1" d="M49.5,130.6c-1.5,0.7-2.9,1.3-4.3,2c2.3-0.3,4.6-0.6,6.9-0.8L49.5,130.6z"/>
					<path class="st1" d="M64.6,136.8l-13-0.6c3.9,0.8,7.9,1.6,11.9,2.4C62.8,138,61.7,136.9,64.6,136.8z"/>
					<path class="st1" d="M195.9,155.8l2.5-1.9c2.7-2,2.8-2.2,3.2-2.7C199.7,152.8,197.8,154.3,195.9,155.8z"/>
					<path class="st1" d="M199,145.4v0.3c2.4-3.1,4.8-6.2,7.2-9.3L199,145.4z"/>
					<path class="st1" d="M183.2,152.5c0.1,0.6,1.9-1.3,1.9-0.7C183.3,153.2,190.8,140,183.2,152.5z"/>
				</g>
			</g>
		</g>
	</g>
</g>
<g>
	<g>
		<g>
			<g>
				<g>
					<path class="st2" d="M149.8,264c-0.6-1-3.3,6.9-4,8.3C148.1,271.1,150.5,261.9,149.8,264z"/>
					<path class="st2" d="M168.8,249.8l-0.9,3.3c1.2-2.6,2.4-5.2,3.5-7.8C170.6,246.8,169.7,248.3,168.8,249.8z"/>
					<path class="st2" d="M180.5,251.6c0-7.2-1-6.7-2.3-5c-1.3,1.6-3,4.3-3.6,1.6l0.2-3.3c-0.9,3.7-1.8,7.5-2.7,11.2
						c1.5-0.7,3.3-2.8,4.9-4.3C178.4,250.4,179.7,249.6,180.5,251.6z"/>
					<path class="st2" d="M186.6,282.7c-0.5-5.6,1.8-4.7-1.9-1.8c0.2,0.6,0.2,1,0.3,1.4C185.4,282.3,185.8,282.3,186.6,282.7z"/>
					<path class="st2" d="M185,282.4C183.3,282.7,186,287.1,185,282.4L185,282.4z"/>
					<path class="st2" d="M192.5,279.1c-0.6,1.7-1.3,3.4-2,5c0.6,3.3,2.6,3.9,2,6.3C194.8,287.6,194,284.4,192.5,279.1z"/>
					<path class="st2" d="M193.8,268.6l-0.9,2.1C193.2,272.1,193.5,272.6,193.8,268.6z"/>
					<path class="st2" d="M190.9,275.2c0.7-1.5,1.4-3,2-4.5c-0.4-2.3-0.7-6.9-0.9,1.6C192,268.1,191.8,272.2,190.9,275.2z"/>
					<path class="st2" d="M189.6,273.1c-1.2-3.1-2.5-5-0.8-10c-1.7,1-2.5,4-2.4,6.5C186.6,272.1,187.7,274.2,189.6,273.1z"/>
					<path class="st2" d="M182,236.9c-0.2-1.4-0.5-2.8-0.7-4.3c-0.4,1.6-0.8,3.1-1.3,4.7C180.7,235.1,181.8,241.4,182,236.9z"/>
					<path class="st2" d="M206.8,285c-0.4-3-2-7.9-2.8-11.7c-0.3,1.2-0.6,2.5-1,3.7C204.1,278.9,205.9,280.6,206.8,285z"/>
					<path class="st2" d="M204,273.3c0.5-1.8,0.9-3.7,1.3-5.5C203.4,267.5,203.4,270,204,273.3z"/>
					<path class="st2" d="M193.1,252.8c-0.7,3.7-1.6,7.4-2.6,11.1c1.2-3.8,2.2-7.5,3.1-11.3L193.1,252.8z"/>
					<path class="st2" d="M216.2,283.5c0.1,2.4,0.2,4.8,0.2,7.2c0.1-3.6,0.1-7.3,0-10.9L216.2,283.5z"/>
					<path class="st2" d="M222,280.6c0.3,2.9,1.4,5.2,2.4,7.2s1.9,3.7,1.8,5.6c1.5-1.5,1.5-6.8,1.3-11.5
						C227,284.7,225.2,284.7,222,280.6z"/>
					<path class="st2" d="M227.4,275c-0.2,1.5,0,4.1,0.1,6.9C227.8,280.4,227.8,278.3,227.4,275z"/>
					<path class="st2" d="M209.2,268.6c0.5,1.8,1.9,6.4,3.6,8.1c-0.9-2.7-1.9-5.4-2.7-8.1C209.8,268.5,209.5,268.5,209.2,268.6z"/>
					<path class="st2" d="M210,268.2l0.1,0.3c0.9,0,1.6,0,1.9,0.1C211.7,268.5,211.1,268.4,210,268.2z"/>
					<path class="st2" d="M209,268.6c0.1,0,0.1,0,0.2,0C209,267.7,208.9,267.5,209,268.6z"/>
					<path class="st2" d="M198.7,260c0.3-2.4,0.8-5,0.8-7.8s-0.5-5.9-1.9-9.4c0.1,3,0.5,5.4,0.8,8.1
						C198.8,253.5,199.1,256.3,198.7,260z"/>
					<path class="st2" d="M205.9,258.3c-0.8-0.5-1.6-1-2.4-1.5c0.4,2.2,1.4,5.4,1.2,7.8C205.1,262.5,205.5,260.4,205.9,258.3z"/>
					<polygon class="st2" points="206.3,255.4 205.9,258.3 206.8,258.9 					"/>
					<path class="st2" d="M220.8,268.8c-0.2-3.9,0.7-4.5,1.7-5.5c-1.8-1.1-3.3-1.6-4.5-1.2C218.6,264.8,219.5,269.5,220.8,268.8z"/>
					<path class="st2" d="M215.3,267.9c0-0.2,0.1-0.3,0.1-0.5C215,266.7,214.9,266.6,215.3,267.9z"/>
					<path class="st2" d="M233.7,258.6c-0.3-0.4-0.6-0.9-0.9-1.3c0.2,0.4,0.4,0.9,0.6,1.3H233.7z"/>
					<path class="st2" d="M217.3,260.7c-1.4-1.3-1.3,0.8-1.1,3.5c0.5-1,1-1.8,1.8-2C217.7,261,217.4,260.2,217.3,260.7z"/>
					<path class="st2" d="M229.4,269.9c-1.2-1.5-2.3-2.6-3.4-3.7C227.5,268.6,230.1,272.1,229.4,269.9z"/>
					<path class="st2" d="M216.3,269.6c0,0.1,0,0.3,0,0.4C217.1,271.7,216.8,270.8,216.3,269.6z"/>
					<path class="st2" d="M216.3,269.6c0.2-1.3,0-3.5-0.2-5.4c-0.4,0.8-0.7,1.9-0.8,3.2C215.7,268,216,268.8,216.3,269.6z"/>
					<path class="st2" d="M210.8,208.7c1.9,3.5,3.3,7,3.7,8.8c0.3,1.8-0.5,1.9-2.9-1.7c0.8,2.9,4,10.3,8,18.4
						c4.1,8.1,9.1,17,13.2,23.1c-1.5-3.1-2.8-6-3.2-11.1c-1.3-1.7-3.4-3.5-5.4-5.8s-3.7-5-4.6-8.5c0.1-4.6,2.8,1.7,5.8,4.9
						c-2.7-4.1-3.7-7.6-5.2-11.6c-1.4-4-3.2-8.4-7-14.6c0.5,1.7,0.9,3.4,1.3,5.2C213.5,213.7,212.1,210.3,210.8,208.7z"/>
					<path class="st2" d="M228.6,258.4l-0.5,1.3c1.5,0.8,3.5,3.5,7.5,8.4c-0.1-4.3-1.1-7-2.2-9.4l-2.3,0.5l-2.3,0.4L228.6,258.4z"/>
					<path class="st2" d="M224.3,261.3c-1.2-4.1-1.7-7.3-2.5-10.4c-0.8-3.1-1.9-6.2-4.1-10.3c-1.8,1.4,1.2,7.3,1.1,11.3
						c1.5-1.7,1.6-0.5,2,1.6c0.3,2.1,0.8,5.1,3.1,6.8c-0.3,1.7-0.9,2.4-1.4,2.9c1.1,0.7,2.3,1.7,3.6,2.9c-0.1-0.2-0.2-0.3-0.3-0.5
						l0,0v-0.1c-0.6-0.9-0.9-1.5-0.4-1c0-0.1,0-0.1,0-0.2C224.9,263.3,224.6,262.3,224.3,261.3c1.9,1.3,1,2,1,3.1
						c0.1,0.4,0.3,0.8,0.4,1.2c0,0,0,0.1,0.1,0.1c0.9-2,1.7-4.1,2.4-6.1C226.8,258.9,225.9,259.6,224.3,261.3z"/>
					<path class="st2" d="M196.5,224.2c0.2,0.7,0.3,1.3,0.4,2C196.9,225.1,196.8,224.4,196.5,224.2z"/>
					<path class="st2" d="M198.4,229.2c0,1.2,0.4,4.6-0.4,3.9c-1-2.5-0.6-4.1-1.1-6.9c0,2.3-0.5,6.3,1.5,10.3v-1.2
						c0.8,1.4,2.1,4.6,3.3,7.7c1.1,3.1,2.1,5.9,2.1,6.5C201.9,241.9,200.5,236.5,198.4,229.2z"/>
					<path class="st2" d="M209.2,243.9c0.5-1.6,1-3.2,1.5-4.8c-1.2-2.2-2.3-4.5-3.5-6.8l1.3,4.3
						C206.6,235.3,208.5,240.6,209.2,243.9z"/>
					<path class="st2" d="M236,262.2l3.6,8.4c-1.2-4.2-2.4-8.4-3.8-12.5C235.9,259.5,236,260.9,236,262.2z"/>
					<path class="st2" d="M240,258.9l3.7,7c-0.4-1.6-0.7-3.2-1.1-4.8L240,258.9z"/>
					<path class="st2" d="M158.4,165.7L158,168C158.2,167.3,158.3,166.5,158.4,165.7z"/>
					<path class="st2" d="M160.7,166.5l0.5-3.9C160.8,164.7,160.6,166.3,160.7,166.5z"/>
					<path class="st2" d="M274.2,137.4c6-4.6,15.1-11.7,7.4-7.4l-7.4,4.5C276,134.7,275.6,135.9,274.2,137.4z"/>
					<path class="st2" d="M198.2,130.5c-0.3,0.8-0.7,1.6-1,2.4c1.6-2.5,3.1-4.9,4.5-7C200.6,127.3,199.4,128.8,198.2,130.5z"/>
					<path class="st2" d="M180.9,161.9c0.7-1.7,1.4-3.5,2-5.3C182.2,158.5,181.5,160.3,180.9,161.9z"/>
					<path class="st2" d="M151,175.1l0.2,0.9v-0.2l-0.1-0.3l-0.1-0.6c0.2,0.9,0.3,1.2,0.3,1.3l0,0
						C151.1,175.9,151.1,175.5,151,175.1z"/>
					<path class="st2" d="M277.1,214.7c3.9-0.4,5.9-1.6,6.8-2.9c-2.8,0.4-6.1,0.3-7.9,0.5S273.9,212.9,277.1,214.7z"/>
					<path class="st2" d="M166.6,74c-0.6,1.5-1,3.3-1.1,5.2C166.1,77.8,166.6,76.1,166.6,74z"/>
					<path class="st2" d="M285.7,205.8c-0.9,0.1-1.5,0.4-2.3,0.6c1,1.9,1.6,3.8,0.4,5.5C288,211.3,291,209.4,285.7,205.8z"/>
					<path class="st2" d="M156.9,180.4c-0.4,0.1-0.6,0.2-1,0.3C157.1,180.5,157.1,180.5,156.9,180.4z"/>
					<path class="st2" d="M84.2,230.1c-0.7,0-1.1-0.5-1.5-0.9C82.3,229.7,82.6,230.1,84.2,230.1z"/>
					<path class="st2" d="M259.5,249.8C259,251,260,250.6,259.5,249.8L259.5,249.8z"/>
					<path class="st2" d="M234,226.3c-0.5-0.9-1.1-1.9-2.4-3.5C232.9,224.5,233.6,225.6,234,226.3z"/>
					<path class="st2" d="M234.5,186.5L234.5,186.5C232.8,186.5,233.1,186.5,234.5,186.5z"/>
					<path class="st2" d="M255.6,247.9c1,0.5,2,0.9,2.8,1C257.8,248.6,256.9,248.2,255.6,247.9z"/>
					<path class="st2" d="M258.4,250.9c-0.6,0-0.9,0-1.3,0C257.9,252.1,258.6,252.8,258.4,250.9z"/>
					<path class="st2" d="M260.4,248.3c-0.4,0.6-1.2,0.7-2,0.6c0.6,0.3,1,0.6,1.1,0.9C259.7,249.5,259.9,249,260.4,248.3z"/>
					<path class="st2" d="M134.1,153.2c-0.2-0.1-0.5-0.2-0.8-0.2C136.6,154.4,136.1,154.1,134.1,153.2z"/>
					<path class="st2" d="M190.4,172.7c0.1-0.1,0.2-0.1,0.3-0.2c0.1-0.1,0.2-0.2,0.2-0.2L190.4,172.7z"/>
					<path class="st2" d="M184.9,176.2c8.4-6.7,7.6-5.6,6-4c6.4-5.3,12.8-10.6,19.2-16.1C201.6,162.7,193.2,169.3,184.9,176.2z"/>
					<path class="st2" d="M153.2,168.2c0.3,2.6,0.5,5.2,0.8,7.8c-0.2,12.9-0.3,8.4,0.3,19.4c-0.6-13.6-0.3-14.3,0.2-15
						c0.1-0.2,0.2-0.4,0.3-0.7c0.1-0.4,0.3-0.9,0.4-1.9c0.2-1.9,0.5-5.5,0.6-12.3c0.1,1.9,0.3,3.8,0.4,5.7c-0.1-0.3-0.2,1.3-0.3,1.1
						c0.3,6.5,0.5,1.6,1-4.4c0.4-6,1-13.2,1.7-11.3c0.4,2.1,0.4,6.1-0.1,9.3c0.5-2.2,1-4.4,1.5-6.6c0.3,0.6-0.2,5.2-0.4,4.7
						c0.6-0.7,1.2-1.4,1.7-2l-0.1,0.8c0.7-4.2,2-10.7,2.6-13.4c0,3.9-0.6,2.8-0.9,6.2c0.6-2.1,1.2-4.3,1.8-6.4
						c-0.3,3.5-0.9,6.9-1.4,9.3c-0.5,2.4-1.1,3.8-1.3,3.3c-1.2,13.5-1,11.8-0.3,8.8c0.6-3.1,1.8-7.5,1.3,0.5
						c-0.4,1.1-0.8,2.2-1.2,3.3c-0.9,7.6-1.2,10.1-1.3,11.8s-0.1,2.8-0.8,7.5c0.4-2.5,1.3-8.5,2.1-14.7c0.9-6.2,1.7-12.7,2.7-15.9
						c-0.1,2.1,0,3.1,1.5-2.2c-1.8,9.5-0.9,7.2-0.3,6.8l-2.7,12.5c1.2-3.5,2.6-9.9,4.2-15.4c0.4,1.4-1.9,11-3.8,19.2
						c0.1,1.1,1-2.8,2-7.2s2.1-9.4,3-10.4c-0.2,2.5,0.1,2.5,0.9,1c0.8-1.5,2.2-4.5,3.9-7.9c-0.8,4.4-2.5,7.4-3.5,11
						c1.2-3.2,2.5-6.4,3.7-9.5c0.1,0.3-1,3.2-1.5,4.7c1.8-3.6,4.2-12.1,6.2-15c2.5-6.6,1.3-1.5,0.1,3.2c-1.2,4.8-2.5,9.3,1.1,2.1
						c-1.2,3.4-3.2,7.2-5,11.8c2.6-4.6,3.7-6.2,4.9-8.3c1.2-2,2.6-4.5,6.3-10.6c-0.8,2.7-1.8,5.4-2.7,8c1.8-4.5,4.2-9.1,6.8-13.6
						s5.6-8.8,8.4-12.6c1.8-4.3,3.3-8.1,4-9.9c1.8-1.6,3.6-3.3,5.5-4.8c-0.7,2-3.1,5.7-6,10.2c0.7-0.9,1.3-1.8,1.9-2.5
						c-1.6,4.6-5.6,10.7-9.5,16.7c1.1-2.4,2.1-4.9,3.2-7.3c-4.2,6.6-8.5,14-11.9,20.7c0.8-1.3,1.5-2.3,2.1-2.8
						c-1.1,1.8-2,3.5-2.6,4.6c-0.6,1.2,0.9-1.2,2.7-4c-2.2,4.2-4.4,8.4-6.6,12.6l2.8-4.9c-1,2.9-2,5.7-3.2,8.5
						c4.1-5.9,9.3-13.1,14.4-19.1c5-6,9.9-10.9,12.9-12.3c-3.4,3.9-6,7.4-8.6,11c-2.6,3.7-5.4,7.5-9.1,12.5c3.7-5.4,2.5-4.6,0.6-2.6
						c-1.9,1.9-4.5,5-4.2,3.7c-0.3,1.4-3.8,6.3-4.9,7.9c2.5-3.1,5.2-6,8-8.9c-6,8.2-4.2,6.3-6.5,9.9c11.8-16.2,9.1-9.9,13.6-14
						c-4.3,5.2-8.8,10.3-8.4,8.6c-4.4,6.1-0.6,1.7,3.6-2.8c4.2-4.5,8.8-9.1,4.9-3.9c-0.3,0,0.3-0.9-2,1.6c2.2-2.1,2.8-2,2.2-0.8
						c-0.5,1.1-2.1,3.2-4.2,5.3h-0.2c-0.3,1.3,0.3,2,2.7,1c2.3-1,6.5-3.5,13-9c-1.6,1.4-15,12.8-18.2,15.6
						c14.8-12.2,30.2-23.4,46.4-33.7c-5.9,4.3-15.4,12.2-24.6,19.3c-9.1,7.1-17.7,13.6-21.2,15.8c-0.7,0.8-1.5,1.5-1.6,1.8
						s0.6,0,2.8-1.3c0.8-0.7,4.9-3.9,9-7.1c4.1-3.2,8.1-6.3,8.8-6.5c-5.5,4.7-7.2,6.2-9.3,7.9c-1.4,1.2-2.5,2.3-8,6.6
						c1.2-1,6.6-4.7,11.6-8s9.8-6.2,9.7-5.6c-2.9,1.8-18.8,12.6-20.9,13.8c6.4-3.9,13-7.6,19.6-11.1c-3.7,1.8-16.1,10.1-21.5,13.6
						c1.9-1.2,1.9-1,1.7-0.6s-0.6,1,0.4,0.5c1.5-1,2.9-2,4.3-3c-1.2,1.4,5.8-2.2,13.3-5.6c7.4-3.4,15.3-6.7,15.3-5.3
						c-2.2,0.9-8.7,3.8-14.9,6.8s-12.2,6.1-13.4,6.9c5.3-2.3,18-7.8,30.8-12.4c12.7-4.6,25.6-8.1,30.3-8l-6,2.9
						c2.6-0.1,5.3-0.1,7.9,0c-8.5,1.9-21.7,4.9-34.2,8.7c-12.6,3.7-24.5,8-31.1,10.6c-4.6,2.4-7.1,3.2-6.4,3.3
						c-5.7,2.4-8.7,3.4-9,3.5c-1.2,0.7-2.4,1.2-3.6,1.7c6.3-2.3,9.5-3.4,12.5-4.3c3-0.9,5.7-1.5,11.1-3.2c-4.6,0.9-9.1,2.1-13.5,3.5
						c6.2-2.5,15.2-5.8,22.5-7.9c7.2-2.1,12.9-2.9,12.1-1.6c-2.5,1-8.3,2.6-13.9,4.2c-5.6,1.6-11.2,3.2-13.3,3.9
						c2.2-0.6,4.4-1.1,5.6-1.2c1.2-0.1,1.5,0.1,0,0.5c-2.4,0.5-4.7,1-7,1.6c-2.4,0.9,2-0.2,5.4-0.8c3.4-0.7,5.9-0.8-0.3,0.8
						c-0.4,0.2-4.6,1.2-7.7,1.9c-3.2,0.7-5.2,1.1-1.3,0.4c15.1-2.7,61.5-12.7,73-13.9c-0.5,0.2-3.9,2-8.1,3.8
						c-4.3,1.8-9.4,3.5-13.1,4.3c-5.9,1.2-13.1,1.5-20,2.2c-6.9,0.6-13.6,1.4-18.7,2.2c3.6-0.5,8.2-0.8,9.6-0.9
						c-3.1,0.6-11.3,1.2-9.6,1.4c13.6-1.1-1.1,0.9,11.5-0.7c3.9,0.4-2.8,0.8-2.2,1.2c4.4-0.1,11.9-0.1,18.8,0.4
						c6.9,0.5,13.1,1.7,15,2.6c-3.5-0.3-8-0.3-10.1-0.3c-0.7,1.2-2.7,1.9-4.5,2.4s-3.5,0.7-3.8,1.5c-1.6-0.4-3.4-0.8-5.5-1.3
						c-2.1-0.6-4.4-1.4-7.2-2.4c2.3,0.8,6.6,2.5,6.7,3c-5.6-1.9-5.9-2.3-6.6-2.7c-0.3-0.2-0.7-0.4-1.9-0.8c-1.1-0.4-1.2-0.5-4-1.5
						l0,0l0,0c0,0-0.1,0,0.2,0.1c0.6,0.2,1.3,0.5,2.2,0.9c1.4,0.6,2.5,1.1,3.6,1.6c2.1,1.1,3.8,2.2,5.9,3.5c5.5,2.7,6.3,2.5,5,1.4
						c-1.2-1.1-4.5-2.9-6.8-3.8c8,2.8,16,5.9,22.6,9.7c6.6,3.7,11.7,8,14,12c0.9,2.6-1.6,1.6-4.2,0.1c-2.5-1.5-5.1-3.4-4.2-2.5
						c-1.4,0.8-0.6,2.5,0.9,4.5s3.9,4.6,6.1,6.9c2.1,2.4,4,4.6,4.4,6.1c0.5,1.5-0.5,2.2-3.7,1.4c-4.8-2.7-8.8-6.3-12.4-9.7
						c-3.6-3.4-6.9-6.6-9.9-9.1c-0.9-2,0.8-1.4,2.9-0.6c2.1,0.8,4.6,1.9,4.9,1.1c-1.7-0.5-3.4-1.1-5.1-1.7c-2.4-2.7-4-5.1-1.1-3.9
						c-4.3-2.2-5.5-1.3-6.9-0.3s-3,2.3-6.9-0.2c2.1,2.9,3.9,6.4,7,9.3c-0.1-0.6-0.2-1.2-0.3-1.8c3.3,2.9,4.9,5.4,6.2,7.6
						c1.2,2.1,2.1,3.9,4,4.8c1.4,2.8,3.2,6.5,3.9,9.2s0.4,4.4-2.2,3.3c-2.6-3.2-5.1-6.4-7.6-9.6c2.1,2.9,5.6,4.9,3.9,1.5
						c1.3,2.5-2-0.2-4.4-2s-3.9-2.6,0.2,4.4c2,2,4.2,4,6.3,6c1,3.1,2.8,7.6,3.6,11.3c0.9,3.7,0.8,6.4-1.4,5.4
						c3.7,4.9,3.6,4.5,3.8,4.3s0.5-0.2,5.3,5.2c-5.5-7-3.8-7.8-2.3-8.7c0.7-0.5,1.4-0.9,1.1-2.1c-0.3-1.2-1.6-3.1-4.8-6.5
						c5.5,6.2,7.4,7,9,7.6c1.7,0.5,3.3,0.8,8.9,5.2c-2.6-3.1-5.7-5.4-2.3-5.5c-0.7-1-1.4-2.3-1.8-3.1c0.1,0,0.2,0.1,0.3,0.1
						c-0.1-0.1-0.3-0.2-0.4-0.3c-0.3-0.5-0.4-0.6-0.1-0.1c-1.6-1-3.4-2.3-4.9-3.9c-2.5-4-3-6.5-3.2-8.5c-0.2-2.1-0.1-3.7-1.3-5.8
						c2.3,0.5,2.8,3.8,6.3,6.4c-1.2-2.2-2.4-4.4-3.7-6.5c3.2,3.1,6.5,5.1,9.3,7c2.7,1.9,4.9,3.7,5.3,7c0.9-0.8,1.9-1.6,2.8-2.4
						c2.6,0.9,4.8,1,6.2,0.4c1.4-0.6,1.9-2,1.1-3.9c1.4-0.2,0.1-2.7-0.9-4.4c-1.1-1.7-1.9-2.6,0.5,0.1c-0.2-2.8-0.6-5.6-1.1-8.3
						l1.9,1.1c2.2-2.4,0.5-7.2,0.3-11c-0.1-1.9,0.1-3.6,1.5-5.1c1.4-1.4,3.9-2.5,8.4-3.4c-1.5-3-3.6-5.8-0.5-9
						c2.6,0.2,5.2,0.4,7.8,0.5c-1.1-1.7,1.1-3.7,2.6-5.7c0.7-1,1.3-1.9,1.1-2.7c-0.2-0.8-1-1.4-3-1.8c10.5-1.1,11.7-5.1,10.5-8.8
						c-0.6-1.8-1.8-3.6-2.6-5.2c-0.8-1.6-1.3-2.9-0.6-4.2l-10.1,1.2c0.2-2.8-3.1-4.9-7.7-6.9l-8.7,2.1c-3.9-0.4-2.6-2.1-0.7-4.3
						s4.4-5,3.4-6.7c3.4-0.8,2.8,0.5,1,1.7c4.5-2.6,5.6-4.3,5-5.5c-0.6-1.1-2.9-1.7-5.4-2c-2.5-0.4-5.1-0.5-6.3-1.2
						c-1.2-0.7-1.1-1.8,1.8-4.3c-3.4,0.4-2.7-0.7-1-2.3c0.1,0.1,0.3,0.1,0.5,0c0-0.1,0-0.3-0.1-0.4c1.2-1.1,2.6-2.3,3.6-3.4
						c-1.8,1.4-3.2,2.5-3.8,3.2c-0.5-0.6-2-1.2-4.6-1.2l8.3-4.9c-0.2,0-0.2-0.1-0.4-0.1c2.5-2.8-4.5,1.3-10.6,5.3
						c-1.7,0.2-3.6,0.7-5.8,1.5c6.6-4.1,5.1-4.2,3.7-4.2c-1.4-0.1-2.7-0.2,4.1-5c-3.7,1.8-5.7,1.3-8.6,1.7c-2.9,0.3-6.8,1.4-13.9,6
						c1.8-1.3,2.5-2.1,2.9-1.8c1-2,1.9-4-2.5-1.9l9.6-7.6c-4.9,2.6-9.8,5.2-14.6,8c5.1-5.6,8-8.9,16.4-13.5c-6.9,3-8.4,3.4-9.8,3.7
						c-1.4,0.4-2.9,0.7-9.2,4.4l6-5.1c-0.5-0.3-3,1-4.7,1.8c-1.8,0.8-2.9,1.1-0.7-1.3c4.7-5.9,3-8.6,0.6-11.2
						c-1.1-1.3-2.4-2.7-3.2-4.6c-0.8-2-1.1-4.4-0.3-8.3c-6.5,9.7-5.5,7.2-4.3,4s2.5-7.1-2.8,0.3c2.9-4.7,3.8-7.8,7.5-11.1
						c-3,1.2-2.9-1.4-3.3-2.8c-0.5-1.4-1.6-1.8-6.5,4.1c2.5-4.9,4.8-6.5,6.3-9.5c-0.9,0.9-3.5,3.5-2.1,0.5s2.8-3.7,4.6-5.4
						c-3.9-1.2-12.6,13.4-20.6,27.2c2.4-7.3,1.1-6.8-4.7,2c2-4.8,3.6-10.1,6.2-10.9c-0.3-0.6-0.9-3.1-2.2-4s-3.3-0.1-5.9,5.7
						c1-3.1-0.9-1.5-1.8-0.2c-1.8-1.6-1.6-2.8-4.1-2.5l-0.2,2.2c-3.2,7-3.9,7.7-4.1,6.7c-0.2-1,0.1-3.6-1.1-3l0.6-1.5
						c0-5.9-1-4.8-1.7-3.8c-0.8,0.9-1.4,1.7-1.5-5l-2.6,9.3c-3.2,9.8-3,6.7-2.7,2c0.3-4.8,0.5-11.1-1.6-7.6l-0.6,5.5
						c-1.4,3.3-0.5-3.7,0.5-11.9s2-17.6,1.5-19.1c0-1.8,1.1-2.7,1.9-3.9c-0.7-6.4-1.5-3.4-2.5,1.6c-1,4.9-2.3,11.7-3.9,12.9
						c0.8-6.8,4-16.8,2.2-18.4c0-2.8-2.5,2.3-4.8,6.6c-2.4,4.3-4.5,7.6-5,1c-0.1,5.3-0.3,10.5-2,14.2c-1,0.8-1.7-4.2-2.6-7.4
						c-1-3.2-2.2-4.6-3.7,3.5c-0.1-1.5-0.1-2.8,0-4.1c-1.8,4.1-5.1,6.8-6.2,15.7c0-16.6-2.5-12.6-4.5-8.3c-2.1,4.4-3.6,9.1-4.1-6.2
						c-1.6,0.6-3.1,1.2-4.6,1.9l-0.1-3.1c-1.6-0.9-2.6,0.5-3.2,3.1c-0.5,2.6-0.7,6.3-0.7,10c-0.9-2-0.8-4.9-0.9-6.5
						c-2.6-2.8-4.1-3.8-5.1-2.1c-0.9,1.7-1.4,5.9-1.6,13.7l-2.5-9.6c0.1,2.9-2.3-0.5-5.4-3c-1.5-1.2-3.2-2.2-4.7-2
						c-0.7,0.1-1.3,0.4-1.8,1.2c-0.5,0.7-0.9,1.9-1,3.5c-0.3-1.1-0.9-2.9-1-4.4c-0.2,1.6-0.8,2.5-1.5,2.9s-1.7,0.4-2.8,0
						c-1.1-0.3-2.4-0.9-3.7-1.5c-1.3-0.6-2.7-1.2-3.9-1.6c-2.5-0.9-4.7-0.9-5.2,1.2s0.8,6.4,5.2,14.3c0.4,3.3,1,6.4,1.8,9.6
						c2.8-0.3,4.8,3.2,6.8,7c2.1,3.8,4.4,8,6.6,10c0.1,1.2-2.1-0.5-4.4-2.8c-2.4-2.2-4.8-5-4.6-6.4l1.3,1.3c-2.7-3.9-4.5-5.9-6-7
						c-1.4-1-2.5-1.1-3.4-0.9c-1.8,0.4-3.3,1.4-7.6-3.3c-0.9,1-1.9,2-3,2.8c-1.1,0.9-2.3,1.6-3.5,2.4s-2.4,1.5-3.7,2.3l-2,1.1
						l-1.9,1.2c-1.3,0.8-2.6,1.6-3.9,2.5s-2.4,1.8-3.5,2.8s-2.1,2-3,3.1c-0.8,1.1-1.6,2.2-2.2,3.4c4.7,1.4,9.4,2.9,14,4.4l-1.9,2.6
						c-3.4-0.4-11.2-2.7-9.7-4.9c-4.1-0.8-2.9,0.9-0.2,2.7c2.7,1.9,6.9,3.9,8.4,4.4c-3.4,1.1-7.4-0.4-10.6-2.3
						c-3.2-1.9-5.4-4.1-5.8-3.4l0.4,2.3l1.8,0.1c2.6,1.7,5.4,3,7.4,4.1c2,1.2,3.2,2.2,2.5,3.3c-3.2,0.9-9-1.3-9.7-0.8
						c-1-0.3-1.6-0.1-0.7,1l-1.1,1.9l-1,1.8c3.9,0.2,7.8,0.4,11.6,0.7c5.3,2.6-1.2,3.1,12,3.9c-5.1-0.4-8.2,0.2-10.1,1.3
						c-1.9,1-2.5,2.5-2.7,4.1c-0.4,3,1.2,5.9-2,6.4c4.2,1.2,6.2,2.1,7.1,3.1s0.5,2,0.1,3.1c2.4-0.6,15.4-0.9,13.8,0.8
						c-13.4-0.1-16.3,0.8-18.2,2c-1.9,1.3-2.9,2.7-12.5,4.1c6.3-1.1,7.2,0.3,8.7,1.5c1.6,1.2,3.8,2.1,12.7,0.4
						c-2.1,1.7-10,0.8-16.2,2.5c5.3,1.5,3.9,3.6,1.6,6.1c-1.1,1.2-2.5,2.5-3.3,3.7c-0.4,0.6-0.7,1.2-0.7,1.8s0.2,1.2,0.7,1.8
						c3.5-0.5,8.7-2,14-1.8c-5.7,1.7-11.3,3.5-16.9,5.4c0.9,0.4,6-0.3,9.3-0.5c3.3-0.3,5-0.2-0.8,1.9c2.9-0.8,7.2-2,8.4-1.6
						c-0.9,0.8-1.7,1.6-2.3,2.3c-0.6,0.8-1,1.5-1.2,2.3c-0.6,1.4-0.5,2.9-0.1,4.3c0.4,1.4,1.1,2.5,1.9,3.7c0.8,1.1,1.7,2.3,2.6,3.4
						c0.9,1.1,1.6,2.2,2.1,3.5c0.2,0.6,0.4,1.3,0.5,1.9c0.1,0.7,0.1,1.4,0,2.2c-0.5,3.1-2.9,7.1-8.4,13.4c5.2-4.5,6.4-3.9,7.3-3.1
						c1-1.4,7.7-4.1,11.9-6.4c-1.6,1.6-3.1,3.2-4.6,4.9c-1.5,1.6-3,3.3-4.4,5c3-1.5,4.8-2.1,5.9-2.2c1.1-0.1,1.6,0.2,2,0.6
						c0.9,0.7,1.7,1.4,7.3-2c-1,0.1-2,0.3-2.9,0.4c7.1-3.5,13.8-8.5,20.9-13.5c1.7-1.2,3.5-2.5,5.3-3.7c1.7-1.2,3.5-2.4,5.4-3.7
						c3.7-2.4,7.5-4.8,11.5-7.2c-7.5,3.9-2.8,0.2,1.3-2.7c2.1-1.5,4-2.9,4-3.3c0-0.4-1.8,0.2-7.5,2.6c3.3-2,5.6-2.5,9.5-4.6
						c-7.5,3.4-9.3,3.6-6.5,1.4l1.9-0.8c-1.5-0.5-0.5-1.9,1.5-3.5s4.9-3.4,7.2-5.1l-9,3c1-0.9,3.9-1.8,6.1-2.7
						c-14,3.5-0.4,1.5-15.7,5.7c4.5-1.6,6.8-2.7,7.9-3.4c0.6-0.4,0.8-0.7,1-0.9s0.2-0.5,0.2-0.7s0.1-0.4,0.4-0.7
						c0.2-0.3,0.7-0.6,1.4-0.9c1.5-0.7,4.3-1.5,9.6-2.7c0-0.3-2.7,0.2-5.4,0.8s-5.3,1.2-5.4,0.8l5.8-1.3l-7.5,1.2
						c1.1-0.8,8.4-2.4,13.3-3.3c-0.6,0.2,1.4,0.1,1.9,0.2c3.4-0.9,2.7-1.2,1.5-1.4s-3-0.4-1.9-0.7l-3.5,1.4
						c-0.7-0.2-1.3-0.5-1.6-0.7c-0.4-0.3-0.6-0.6-0.8-1c-0.3-0.8-0.4-1.6-0.6-2.4c-0.2-0.8-0.6-1.5-1.7-2.1c-1.1-0.6-2.9-1.2-6-1.6
						l-4.4,0.5c-4.2-0.8-3-1.4-1.3-1.9c1.8-0.6,4.1-1.1,2.1-2.2h1.1c-4.4-0.3-6.7-0.9-6.2-1.5c2.6,0.3,5.2,0,7.8-0.3
						c2.6-0.2,5.3-0.4,8.2-0.1c-4.5-0.9-6.2-1.1-8.9-1.3s-6.4-0.3-14.7-1.4l7.4-0.1c-6.7-0.8-10.2-1-12.1-2.4c3.1,0.7,6,0.7,9.1,0.7
						c3.1,0,6.4,0.2,10.6,0.9c4.1-0.2,5.1-0.4,4.7-0.8c-0.4-0.3-2.1-0.7-3.7-1.2c-1.5-0.4-2.8-0.8-2.3-1s3,0,8.9,0.8
						c-5-0.9-8.3-1.5-10.4-1.7c-2.1-0.2-3-0.2-3.5,0c-0.9,0.4,0.2,1-1.9,0.5c-3.4-0.2-7.1-0.8-9.8-1.6c-2.7-0.8-4.2-1.6-3.1-1.9
						c0.3-0.4,6.8,0.3,13.3,1.2c2.6,0.3,5.4,0.7,8.7,1.1c2.4,0.3,3.9,0.5,3.9,0.3c-0.1,0.1,1.4,0.4,1.3,0.5c2.6,0.5,0.9,0-0.4-0.5
						c-0.6-0.2-1.2-0.5-1.1-0.5c0.1,0,1,0.1,3,0.7c-5.9-1.8-5.7-1.9-5.9-2c-0.2-0.2-0.8-0.4-8.3-3c1.1,0.7,2.1,1.4,3.2,2
						c-1.9-0.8-7.3-2.7-10.9-4.4c-1.8-0.9-3.3-1.7-3.7-2.1c-0.4-0.5,0.3-0.6,2.5-0.1c2.9,1.3,6.7,3.1,8.8,4.1
						c2.3,0.7,1.6,0.3,0.9-0.1c-0.7-0.4-1.3-0.8,1,0c7.3,3.1,8.1,3.5,8.4,3.7c0.3,0.2,0.2,0.6,5.9,2.4c3.2,1,0.5,0.1-1-0.5
						c-0.7-0.3-1.2-0.5-0.4-0.2s1.3,0.4,2.2,0.8c0.3,0.1,0.7,0.2,1.2,0.4c0,0,0.1,0,0.2,0.1c-0.1,0-0.2-0.1-0.3-0.1
						c-0.8-0.3-1.5-0.5-2.2-0.8c-1.4-0.5-2.2-0.8-2.7-1c-0.9-0.4-0.5-0.2,0.2,0c1.3,0.4,3,1.3-4.5-2.2l4.8,2.3
						c-0.1-0.1-0.3-0.1-0.5-0.2c-0.1-0.1-0.2-0.1-0.4-0.2c-0.4-0.2-0.6-0.3-0.5-0.3l0.6,0.3l0.4,0.2c-0.6-0.3-1.2-0.6-1.8-0.9
						l-0.2-0.1l-0.1-0.1l-0.3-0.1c-0.2-0.1-0.4-0.2-0.5-0.3c0.8,0.5,0.8,0.5,0.8,0.5c-0.3-0.2-0.3-0.2-1.2-0.7
						c-2.7-1.6-2.7-1.7-1.3-0.8c0.5,0.3,0.9,0.6,1.3,0.8l0.2,0.1l0,0l0,0h-0.1c-0.1-0.1-0.2-0.1-0.2-0.2c-0.1-0.1-0.2-0.1-0.2-0.2
						c-0.1-0.1-0.2-0.1-0.2-0.1c-0.1-0.1-0.3-0.2-0.5-0.4c0.1,0.1,0.5,0.4,0.3,0.2c-0.2-0.1-0.5-0.4-0.6-0.4c0.1,0.1,0,0,0,0l0,0
						l0,0l0,0c-0.3-0.4-0.7-0.7-1.1-1.1l1.1,1.1l0,0l0,0l0,0l0,0l0,0c-1.7-1.8-0.5-0.5-0.8-0.9l0,0l0,0l0,0l0,0l0,0l0.1,0.1
						c0.1,0.1,0.1,0.1,0.1,0.1c0,0.1,0.1,0.1,0.1,0.1l0,0c-0.3-0.4-0.7-0.8-1-1.2c-0.5-0.6-1-1.2-1.7-2c-0.8-1-0.9-1.3,0.3,0.1
						l2,2.6l0.5,0.7l0.1,0.2l0,0l0,0l-0.1-0.1l-0.1-0.1l-0.1-0.1l0.5,0.6l-0.1-0.1c0.3,0.4,0.4,0.5,0.6,0.8c0.2,0.3,0.5,0.6,0.7,1.1
						c-0.1-0.1-0.1-0.2-0.2-0.3c-1.9-3-3.2-5.4-3.2-5.6c3,4.9,4.5,8,3.9,6.7c0.2,0.3,0.4,0.7,0.5,1l0.2,0.4l0,0l-0.1-0.1
						c-0.1-0.1-0.1-0.2-0.2-0.3c-0.1-0.2-0.3-0.5-0.5-0.8c-0.1-0.1-0.2-0.3-0.3-0.4c0.3,0.4,0.6,0.9,0.8,1.4
						c0.3,0.6,0.6,1.1,0.7,1.4c-0.1-0.3-0.3-0.6-0.4-0.7c0.3,0.5,0.5,0.9,0.7,1.4l0.2,0.3v0.1l0,0l-0.1-0.2l-0.4-0.8
						c-0.5-1-0.9-2-1.3-3.1c0.8,1.6,1.4,3.1,2,4.6c0.1,0.2,0.1,0.3,0.2,0.5c0.1,0.1,0,0.1,0,0.1l0,0c0,0,0-0.1-0.1-0.1
						c0-0.1-0.1-0.2-0.1-0.3c0.1,0.3,0.3,0.6,0.4,0.9c-0.5-1.2-1-2.5-1.2-2.9c0.4,0.9,0.7,1.8,1.1,2.7c0.2,0.4,0.3,0.8,0.5,1.2l0,0
						c0-0.1-0.1-0.1-0.1-0.2c-0.1-0.2-0.2-0.5-0.5-1.2c0.2,0.5,0.4,1,0.6,1.6c0.2,0.5,0.5,1.2,0.7,1.8c0.1,0.2,0.6,1.8,0.5,1.4
						c0.4,1,0.9,2.5,1.2,3.9c0.1,0.4,0.2,0.8,0.4,1.2l0.2,0.6v0.2c0,0,0,0.1,0,0l-0.1-0.4c-0.2-0.9-0.2-1,0.2,0.5
						c-0.3-1.5-0.6-2.9-0.8-4c0.2,0.4,0.4,1.3,0.6,2.3c0.2,0.9,0.5,1.7,0.7,2.6c0.3,1.2,0.4,1-0.1-4.4c0.7,4.6,1.3,9.3,1.9,13.9
						c-0.1-1.6-0.6-6-1.1-10.7c-0.6-4.7-1.3-9.6-0.9-12.3c0.5-4.6,1.3,11.9,1.9,15.8c-0.1-3.5-0.3-8.9-0.1-12s0.7-3.8,1.2,1.9
						C153.6,169.2,153.4,167.1,153.2,168.2z M164.7,162.7c-0.6,1.9-1.9,8.1-1.2,2.4C165.4,154.2,164.8,159.5,164.7,162.7z
						 M191.4,147.9c-1.8,2.6-1.3,1.1,0.2-2.3C192.2,145.1,192.4,145.6,191.4,147.9z M263.3,234.9c-0.1-0.1-0.2-0.2-0.3-0.4
						c2.1,0.5,2.7,0.6,2.6,0.6C265.4,235.1,264.5,235,263.3,234.9z M257.5,235c0.7,1.2,1.7,2.1,2.8,2.9c-1.6-1.9-1.1-2.6,0.1-2.9
						C258.3,233.6,256.7,232.7,257.5,235z M70.1,141.2h2.6C75.1,143.1,72.7,142.2,70.1,141.2z"/>
					<path class="st2" d="M182.9,158.3c0.7-1.5,1.5-3.1,2.3-4.7C184.4,155,183.6,156.7,182.9,158.3z"/>
					<path class="st2" d="M150.6,173.5v-0.1c0.2,0.7,0.3,1.2,0.4,1.7L150.6,173.5z"/>
					<path class="st2" d="M196.5,183.6c2.4-0.4,3.9-0.6,4.9-0.8C199.1,183.1,197.1,183.4,196.5,183.6z"/>
					<path class="st2" d="M252.5,260.7c0.2-1.2,0.4-2.3,0.6-3.5c-0.7,1.1-2.3-0.4-3.6-1.3C250.8,257.7,253.1,260.1,252.5,260.7z"/>
					<path class="st2" d="M209.7,216.5c0.3,1.2-0.3,0.3,0,1.4l1.8,4.1C212.1,221.4,211.1,217.9,209.7,216.5z"/>
					<path class="st2" d="M232.9,235.2c-4.6-6.7-3.9-3.8-4.2-1.9c0-0.1,0.1-0.2,0.2-0.1C234.5,243,233.9,239.1,232.9,235.2z"/>
					<path class="st2" d="M228.7,233.7c-0.1,0.5-0.4,0.9-0.9,0.7C230,238.4,228.7,235,228.7,233.7z"/>
					<path class="st2" d="M257.9,242.3c-2-1,6.7,7.9,4.1,5.9c3.1,4.1,2.1,0.8,0.3-2.6C260.4,242.2,257.6,238.7,257.9,242.3z"/>
					<path class="st2" d="M217.7,213.2l5.7,8.2c-1.3-2.4-2.6-4.7-4-7.1L217.7,213.2z"/>
					<path class="st2" d="M227.8,214.9c-1-0.4-2-0.8-2.9-1.2c1.1,1.3,1.5,2.2,1.8,2.9C227.6,216.4,229.7,217.2,227.8,214.9z"/>
					<path class="st2" d="M226.7,216.7c-0.5,0.2-0.8,0.6,0,2.1C226.8,218.5,227.1,217.9,226.7,216.7z"/>
					<path class="st2" d="M217.5,209.7l1.5,1.5l1.2,0.1C219.3,210.8,218.4,210.3,217.5,209.7z"/>
					<path class="st2" d="M240.5,202.7c-0.5-1-1.1-2-1.7-3c-3-1.6-5.1-2.2-4.1-1C236.6,200.1,237.5,201.4,240.5,202.7z"/>
					<path class="st2" d="M215.3,191.3c1.8,1.1,3.6,2.3,6.4,4.1l-10.1-7.2C212.8,189.3,214.1,190.3,215.3,191.3z"/>
					<path class="st2" d="M213.8,188.3c-1.5-0.9-3.6-2.2-5.3-3.1c-1.7-0.9-3-1.5-2.6-1.3c1.5,0.8,2.9,1.6,4.1,2.4
						C211.3,187,212.5,187.8,213.8,188.3z"/>
					<path class="st2" d="M230,177.7l0.2,0.3l20.1-3.2C243.6,175.7,236.8,176.7,230,177.7z"/>
					<path class="st2" d="M181.2,183.5c-4.2,2.5,11.3-5.6,6-2.5c4.4-2,4.3-2.6,8.1-4.3C190.5,178.6,193,177.2,181.2,183.5z"/>
					<path class="st2" d="M195.2,176.7c0.9-0.4,1.8-0.7,2.9-1.2C196.9,175.9,196,176.3,195.2,176.7z"/>
					<polygon class="st2" points="78.5,240.5 76,244.1 81.1,239.6 					"/>
					<path class="st2" d="M93.7,234.5L82.8,242c3.6-2,7.2-4,10.7-6C92.8,236.2,91.4,236.3,93.7,234.5z"/>
					<path class="st2" d="M161.1,188.6l0.6-3.1c0.6-3.3,0.6-3.6,0.5-4.1C161.9,183.8,161.6,186.2,161.1,188.6z"/>
					<polygon class="st2" points="157,178.4 157.1,178.7 157.5,166.9 					"/>
					<path class="st2" d="M153.9,193.3c0,0.5-0.1-2.1,0-1.6C154,193.8,152.6,178.7,153.9,193.3z"/>
				</g>
			</g>
		</g>
	</g>
</g>
</svg>
